<svg width="637" height="355" viewBox="0 0 637 355" fill="none" xmlns="http://www.w3.org/2000/svg">
<path d="M305.627 256.514C280.023 274.843 256.82 295.962 228.015 312.299C170.006 344.972 97.1953 338.199 51.1882 298.352C43.587 291.579 36.786 284.406 31.5852 276.836C1.58058 236.591 -3.62022 193.557 1.98064 149.727C5.98125 115.459 17.583 82.3869 47.9877 53.6977C99.1956 5.88247 187.209 9.07015 229.616 60.4716C242.018 75.2146 249.619 91.9499 260.42 109.482C268.822 99.9192 275.623 90.3561 284.424 82.3869C302.427 66.05 319.229 48.5177 340.833 34.1732C431.647 -26.3928 543.264 1.49941 592.872 56.0885C616.475 81.9884 629.277 110.279 633.678 140.164C641.679 195.55 637.678 250.139 594.072 299.946C557.666 342.183 497.657 361.708 430.046 352.942C384.039 347.363 351.634 327.839 331.231 300.345C320.83 286 313.629 270.062 305.627 256.514ZM327.631 230.614C333.232 233.005 336.432 234.599 340.033 235.396C404.843 249.74 470.853 253.725 536.463 240.576C592.071 229.419 622.076 194.753 610.474 160.485C594.872 114.264 514.059 94.3407 453.65 122.233C394.841 149.727 362.436 189.971 327.631 230.614ZM240.817 133.39C192.41 126.218 149.603 121.436 106.397 125.421C78.3924 127.811 53.9886 135.781 38.3862 152.516C22.3838 169.251 20.7835 187.182 33.9856 204.316C46.3875 221.051 69.9911 225.434 95.9951 225.833C130.4 226.63 157.204 215.473 176.808 198.737C198.811 178.416 218.014 156.501 240.817 133.39Z" fill="url(#paint0_linear)"/>
<defs>
<linearGradient id="paint0_linear" x1="318.5" y1="-37.653" x2="318.5" y2="288" gradientUnits="userSpaceOnUse">
<stop stop-color="#101922" stop-opacity="0.86"/>
<stop offset="1" stop-color="#101922" stop-opacity="0"/>
</linearGradient>
</defs>
</svg>
