<svg width="480" height="98" viewBox="0 0 480 98" fill="none" xmlns="http://www.w3.org/2000/svg">
<path d="M14.0625 20.7969H4.14844V35H1.24219V0.875H12.3281C15.9688 0.875 18.8125 1.75781 20.8594 3.52344C22.9062 5.28906 23.9297 7.75781 23.9297 10.9297C23.9297 13.1172 23.2891 15.0469 22.0078 16.7188C20.7266 18.3906 19.0078 19.5469 16.8516 20.1875L25.3828 34.6953V35H22.3125L14.0625 20.7969ZM4.14844 18.3359H12.9844C15.4062 18.3359 17.3516 17.6484 18.8203 16.2734C20.2891 14.8984 21.0234 13.1172 21.0234 10.9297C21.0234 8.52344 20.2578 6.65625 18.7266 5.32812C17.1953 4 15.0469 3.33594 12.2812 3.33594H4.14844V18.3359ZM60.225 18.6406H44.2641V32.5625H62.6156V35H41.3812V0.875H62.4984V3.33594H44.2641V16.2031H60.225V18.6406ZM96.7312 25.4375H81.2391L77.7234 35H74.7L87.6141 0.875H90.3562L103.27 35H100.27L96.7312 25.4375ZM82.1297 22.9766H95.8172L88.9734 4.39062L82.1297 22.9766ZM120.816 32.5625H137.667V35H117.909V0.875H120.816V32.5625ZM160.884 21.125H149.658V18.7578H160.884V21.125ZM199.312 3.33594H187.617V35H184.734V3.33594H173.062V0.875H199.312V3.33594ZM217.959 35H215.077V0.875H217.959V35ZM240.661 0.875L253.247 30.9922L265.88 0.875H269.723V35H266.841V20.1406L267.075 4.90625L254.372 35H252.145L239.489 5.02344L239.723 20.0469V35H236.841V0.875H240.661ZM306.816 18.6406H290.855V32.5625H309.206V35H287.972V0.875H309.089V3.33594H290.855V16.2031H306.816V18.6406Z" fill="white"/>
<path d="M25.4766 86.3594C25.0859 89.9531 23.7969 92.7031 21.6094 94.6094C19.4375 96.5156 16.5391 97.4688 12.9141 97.4688C10.3828 97.4688 8.14062 96.8359 6.1875 95.5703C4.25 94.3047 2.75 92.5156 1.6875 90.2031C0.625 87.875 0.0859375 85.2188 0.0703125 82.2344V77.8047C0.0703125 74.7734 0.601562 72.0859 1.66406 69.7422C2.72656 67.3984 4.25 65.5938 6.23438 64.3281C8.23438 63.0469 10.5312 62.4062 13.125 62.4062C16.7812 62.4062 19.6641 63.3984 21.7734 65.3828C23.8984 67.3516 25.1328 70.0781 25.4766 73.5625H22.5703C21.8516 67.7656 18.7031 64.8672 13.125 64.8672C10.0312 64.8672 7.5625 66.0234 5.71875 68.3359C3.89062 70.6484 2.97656 73.8438 2.97656 77.9219V82.0938C2.97656 86.0312 3.86719 89.1719 5.64844 91.5156C7.44531 93.8594 9.86719 95.0312 12.9141 95.0312C15.9297 95.0312 18.2031 94.3125 19.7344 92.875C21.2656 91.4219 22.2109 89.25 22.5703 86.3594H25.4766ZM67.3031 81.7891C67.3031 84.9297 66.7562 87.6875 65.6625 90.0625C64.5844 92.4375 63.0375 94.2656 61.0219 95.5469C59.0062 96.8281 56.6781 97.4688 54.0375 97.4688C50.0531 97.4688 46.8344 96.0469 44.3812 93.2031C41.9281 90.3438 40.7016 86.4922 40.7016 81.6484V78.1328C40.7016 75.0234 41.2484 72.2734 42.3422 69.8828C43.4516 67.4766 45.0141 65.6328 47.0297 64.3516C49.0453 63.0547 51.3656 62.4062 53.9906 62.4062C56.6156 62.4062 58.9281 63.0391 60.9281 64.3047C62.9437 65.5703 64.4984 67.3594 65.5922 69.6719C66.6859 71.9844 67.2562 74.6641 67.3031 77.7109V81.7891ZM64.4203 78.0859C64.4203 73.9766 63.4906 70.7578 61.6312 68.4297C59.7719 66.1016 57.225 64.9375 53.9906 64.9375C50.8187 64.9375 48.2875 66.1094 46.3969 68.4531C44.5219 70.7812 43.5844 74.0391 43.5844 78.2266V81.7891C43.5844 85.8359 44.5219 89.0469 46.3969 91.4219C48.2719 93.7812 50.8187 94.9609 54.0375 94.9609C57.3031 94.9609 59.85 93.7969 61.6781 91.4688C63.5062 89.125 64.4203 85.8672 64.4203 81.6953V78.0859ZM87.075 94.5625H103.927V97H84.1687V62.875H87.075V94.5625ZM121.988 94.5625H138.839V97H119.081V62.875H121.988V94.5625ZM172.884 87.4375H157.392L153.877 97H150.853L163.767 62.875H166.509L179.423 97H176.423L172.884 87.4375ZM158.283 84.9766H171.97L165.127 66.3906L158.283 84.9766ZM194.062 97V62.875H204.141C207.797 62.875 210.57 63.6328 212.461 65.1484C214.352 66.6484 215.297 68.8672 215.297 71.8047C215.297 73.5703 214.812 75.1094 213.844 76.4219C212.891 77.7188 211.578 78.6484 209.906 79.2109C211.891 79.6484 213.484 80.625 214.688 82.1406C215.906 83.6562 216.516 85.4062 216.516 87.3906C216.516 90.4062 215.539 92.7656 213.586 94.4688C211.648 96.1562 208.945 97 205.477 97H194.062ZM196.945 80.5938V94.5625H205.594C208.062 94.5625 210.016 93.9375 211.453 92.6875C212.906 91.4219 213.633 89.6719 213.633 87.4375C213.633 85.3281 212.938 83.6641 211.547 82.4453C210.172 81.2109 208.266 80.5938 205.828 80.5938H196.945ZM196.945 78.1797H204.82C207.227 78.1328 209.086 77.5703 210.398 76.4922C211.727 75.3984 212.391 73.8125 212.391 71.7344C212.391 69.5469 211.703 67.9375 210.328 66.9062C208.969 65.8594 206.906 65.3359 204.141 65.3359H196.945V78.1797ZM258.319 81.7891C258.319 84.9297 257.772 87.6875 256.678 90.0625C255.6 92.4375 254.053 94.2656 252.038 95.5469C250.022 96.8281 247.694 97.4688 245.053 97.4688C241.069 97.4688 237.85 96.0469 235.397 93.2031C232.944 90.3438 231.717 86.4922 231.717 81.6484V78.1328C231.717 75.0234 232.264 72.2734 233.358 69.8828C234.467 67.4766 236.03 65.6328 238.045 64.3516C240.061 63.0547 242.381 62.4062 245.006 62.4062C247.631 62.4062 249.944 63.0391 251.944 64.3047C253.959 65.5703 255.514 67.3594 256.608 69.6719C257.702 71.9844 258.272 74.6641 258.319 77.7109V81.7891ZM255.436 78.0859C255.436 73.9766 254.506 70.7578 252.647 68.4297C250.788 66.1016 248.241 64.9375 245.006 64.9375C241.834 64.9375 239.303 66.1094 237.413 68.4531C235.538 70.7812 234.6 74.0391 234.6 78.2266V81.7891C234.6 85.8359 235.538 89.0469 237.413 91.4219C239.288 93.7812 241.834 94.9609 245.053 94.9609C248.319 94.9609 250.866 93.7969 252.694 91.4688C254.522 89.125 255.436 85.8672 255.436 81.6953V78.0859ZM287.934 82.7969H278.02V97H275.114V62.875H286.2C289.841 62.875 292.684 63.7578 294.731 65.5234C296.778 67.2891 297.802 69.7578 297.802 72.9297C297.802 75.1172 297.161 77.0469 295.88 78.7188C294.598 80.3906 292.88 81.5469 290.723 82.1875L299.255 96.6953V97H296.184L287.934 82.7969ZM278.02 80.3359H286.856C289.278 80.3359 291.223 79.6484 292.692 78.2734C294.161 76.8984 294.895 75.1172 294.895 72.9297C294.895 70.5234 294.13 68.6562 292.598 67.3281C291.067 66 288.919 65.3359 286.153 65.3359H278.02V80.3359ZM333.675 87.4375H318.183L314.667 97H311.644L324.558 62.875H327.3L340.214 97H337.214L333.675 87.4375ZM319.073 84.9766H332.761L325.917 66.3906L319.073 84.9766ZM374.962 65.3359H363.267V97H360.384V65.3359H348.712V62.875H374.962V65.3359ZM393.609 97H390.727V62.875H393.609V97ZM437.709 81.7891C437.709 84.9297 437.163 87.6875 436.069 90.0625C434.991 92.4375 433.444 94.2656 431.428 95.5469C429.413 96.8281 427.084 97.4688 424.444 97.4688C420.459 97.4688 417.241 96.0469 414.788 93.2031C412.334 90.3438 411.108 86.4922 411.108 81.6484V78.1328C411.108 75.0234 411.655 72.2734 412.748 69.8828C413.858 67.4766 415.42 65.6328 417.436 64.3516C419.452 63.0547 421.772 62.4062 424.397 62.4062C427.022 62.4062 429.334 63.0391 431.334 64.3047C433.35 65.5703 434.905 67.3594 435.998 69.6719C437.092 71.9844 437.663 74.6641 437.709 77.7109V81.7891ZM434.827 78.0859C434.827 73.9766 433.897 70.7578 432.038 68.4297C430.178 66.1016 427.631 64.9375 424.397 64.9375C421.225 64.9375 418.694 66.1094 416.803 68.4531C414.928 70.7812 413.991 74.0391 413.991 78.2266V81.7891C413.991 85.8359 414.928 89.0469 416.803 91.4219C418.678 93.7812 421.225 94.9609 424.444 94.9609C427.709 94.9609 430.256 93.7969 432.084 91.4688C433.913 89.125 434.827 85.8672 434.827 81.6953V78.0859ZM479.981 97H477.098L457.481 67.7969V97H454.575V62.875H457.481L477.122 92.1016V62.875H479.981V97Z" fill="#FFD3C5"/>
</svg>
