<svg width="432" height="98" viewBox="0 0 432 98" fill="none" xmlns="http://www.w3.org/2000/svg">
<path d="M25.6016 35H22.6953V18.6406H3.19531V35H0.3125V0.875H3.19531V16.2031H22.6953V0.875H25.6016V35ZM47.4125 35H44.5297V0.875H47.4125V35ZM90.9266 30.9453C89.9266 32.3672 88.3562 33.4766 86.2156 34.2734C84.0906 35.0703 81.7078 35.4688 79.0672 35.4688C76.3953 35.4688 74.0203 34.8281 71.9422 33.5469C69.8641 32.2656 68.2547 30.4531 67.1141 28.1094C65.9734 25.7656 65.3953 23.0781 65.3797 20.0469V15.7344C65.3797 11 66.575 7.26562 68.9656 4.53125C71.3562 1.78125 74.5672 0.40625 78.5984 0.40625C82.1141 0.40625 84.9422 1.30469 87.0828 3.10156C89.2234 4.88281 90.4969 7.34375 90.9031 10.4844H88.0203C87.5984 7.98438 86.575 6.09375 84.95 4.8125C83.3406 3.51563 81.2312 2.86719 78.6219 2.86719C75.4344 2.86719 72.9109 4 71.0516 6.26562C69.1922 8.53125 68.2625 11.7266 68.2625 15.8516V19.8828C68.2625 22.4766 68.7 24.7734 69.575 26.7734C70.4656 28.7578 71.7312 30.2969 73.3719 31.3906C75.0281 32.4844 76.9266 33.0312 79.0672 33.0312C81.5516 33.0312 83.6844 32.6406 85.4656 31.8594C86.6219 31.3438 87.4812 30.7422 88.0437 30.0547V21.2422H78.8797V18.8047H90.9266V30.9453ZM133.995 35H131.089V18.6406H111.589V35H108.706V0.875H111.589V16.2031H131.089V0.875H133.995V35ZM160.353 21.125H149.127V18.7578H160.353V21.125ZM194.422 19.0625H178.508V35H175.625V0.875H196.766V3.33594H178.508V16.6016H194.422V19.0625ZM215.741 35H212.858V0.875H215.741V35ZM234.622 35V0.875H244.161C246.958 0.875 249.466 1.51562 251.684 2.79688C253.903 4.0625 255.63 5.88281 256.864 8.25781C258.114 10.6328 258.739 13.3359 258.739 16.3672V19.5078C258.739 22.5547 258.122 25.2578 256.887 27.6172C255.653 29.9766 253.911 31.7969 251.661 33.0781C249.427 34.3594 246.856 35 243.95 35H234.622ZM237.505 3.33594V32.5625H243.973C247.567 32.5625 250.45 31.375 252.622 29C254.794 26.6094 255.88 23.3828 255.88 19.3203V16.3203C255.88 12.3984 254.809 9.25781 252.669 6.89844C250.528 4.53906 247.708 3.35156 244.208 3.33594H237.505ZM294.519 18.6406H278.558V32.5625H296.909V35H275.675V0.875H296.792V3.33594H278.558V16.2031H294.519V18.6406ZM315.509 32.5625H332.361V35H312.603V0.875H315.509V32.5625ZM351.031 35H348.148V0.875H351.031V35ZM392.366 3.33594H380.67V35H377.788V3.33594H366.116V0.875H392.366V3.33594ZM417.88 19.4844L428.309 0.875H431.638L419.309 22.1562V35H416.427V22.1562L404.122 0.875H407.544L417.88 19.4844Z" fill="white"/>
<path d="M19.1562 80.6406H3.19531V94.5625H21.5469V97H0.3125V62.875H21.4297V65.3359H3.19531V78.2031H19.1562V80.6406ZM47.6234 77.3125L57.2328 62.875H60.6781L49.3812 79.7031L61.0297 97H57.5609L47.6234 82.0938L37.6391 97H34.2172L45.8891 79.7031L34.5687 62.875H38.0141L47.6234 77.3125ZM79.1141 83.1016V97H76.2312V62.875H87.8562C91.4031 62.875 94.2 63.7812 96.2469 65.5938C98.3094 67.4062 99.3406 69.8984 99.3406 73.0703C99.3406 76.2734 98.3484 78.75 96.3641 80.5C94.3953 82.2344 91.5359 83.1016 87.7859 83.1016H79.1141ZM79.1141 80.6641H87.8562C90.6531 80.6641 92.7859 80 94.2547 78.6719C95.7234 77.3438 96.4578 75.4922 96.4578 73.1172C96.4578 70.7578 95.7234 68.8828 94.2547 67.4922C92.8016 66.0859 90.7312 65.3672 88.0437 65.3359H79.1141V80.6641ZM128.159 82.7969H118.245V97H115.339V62.875H126.425C130.066 62.875 132.909 63.7578 134.956 65.5234C137.003 67.2891 138.027 69.7578 138.027 72.9297C138.027 75.1172 137.386 77.0469 136.105 78.7188C134.823 80.3906 133.105 81.5469 130.948 82.1875L139.48 96.6953V97H136.409L128.159 82.7969ZM118.245 80.3359H127.081C129.503 80.3359 131.448 79.6484 132.917 78.2734C134.386 76.8984 135.12 75.1172 135.12 72.9297C135.12 70.5234 134.355 68.6562 132.823 67.3281C131.292 66 129.144 65.3359 126.378 65.3359H118.245V80.3359ZM174.322 80.6406H158.361V94.5625H176.712V97H155.478V62.875H176.595V65.3359H158.361V78.2031H174.322V80.6406ZM211.719 88.6094C211.719 86.7188 211.055 85.2266 209.727 84.1328C208.398 83.0234 205.969 81.9766 202.438 80.9922C198.906 79.9922 196.328 78.9062 194.703 77.7344C192.391 76.0781 191.234 73.9062 191.234 71.2188C191.234 68.6094 192.305 66.4922 194.445 64.8672C196.602 63.2266 199.352 62.4062 202.695 62.4062C204.961 62.4062 206.984 62.8438 208.766 63.7188C210.562 64.5938 211.953 65.8125 212.938 67.375C213.922 68.9375 214.414 70.6797 214.414 72.6016H211.508C211.508 70.2734 210.711 68.4062 209.117 67C207.523 65.5781 205.383 64.8672 202.695 64.8672C200.086 64.8672 198.008 65.4531 196.461 66.625C194.914 67.7812 194.141 69.2969 194.141 71.1719C194.141 72.9062 194.836 74.3203 196.227 75.4141C197.617 76.5078 199.844 77.4766 202.906 78.3203C205.969 79.1484 208.289 80.0156 209.867 80.9219C211.445 81.8125 212.633 82.8828 213.43 84.1328C214.227 85.3828 214.625 86.8594 214.625 88.5625C214.625 91.25 213.547 93.4062 211.391 95.0312C209.25 96.6562 206.422 97.4688 202.906 97.4688C200.5 97.4688 198.289 97.0391 196.273 96.1797C194.273 95.3203 192.75 94.1172 191.703 92.5703C190.672 91.0234 190.156 89.25 190.156 87.25H193.039C193.039 89.6562 193.938 91.5547 195.734 92.9453C197.531 94.3359 199.922 95.0312 202.906 95.0312C205.562 95.0312 207.695 94.4453 209.305 93.2734C210.914 92.1016 211.719 90.5469 211.719 88.6094ZM249.772 88.6094C249.772 86.7188 249.108 85.2266 247.78 84.1328C246.452 83.0234 244.022 81.9766 240.491 80.9922C236.959 79.9922 234.381 78.9062 232.756 77.7344C230.444 76.0781 229.288 73.9062 229.288 71.2188C229.288 68.6094 230.358 66.4922 232.498 64.8672C234.655 63.2266 237.405 62.4062 240.748 62.4062C243.014 62.4062 245.038 62.8438 246.819 63.7188C248.616 64.5938 250.006 65.8125 250.991 67.375C251.975 68.9375 252.467 70.6797 252.467 72.6016H249.561C249.561 70.2734 248.764 68.4062 247.17 67C245.577 65.5781 243.436 64.8672 240.748 64.8672C238.139 64.8672 236.061 65.4531 234.514 66.625C232.967 67.7812 232.194 69.2969 232.194 71.1719C232.194 72.9062 232.889 74.3203 234.28 75.4141C235.67 76.5078 237.897 77.4766 240.959 78.3203C244.022 79.1484 246.342 80.0156 247.92 80.9219C249.498 81.8125 250.686 82.8828 251.483 84.1328C252.28 85.3828 252.678 86.8594 252.678 88.5625C252.678 91.25 251.6 93.4062 249.444 95.0312C247.303 96.6562 244.475 97.4688 240.959 97.4688C238.553 97.4688 236.342 97.0391 234.327 96.1797C232.327 95.3203 230.803 94.1172 229.756 92.5703C228.725 91.0234 228.209 89.25 228.209 87.25H231.092C231.092 89.6562 231.991 91.5547 233.788 92.9453C235.584 94.3359 237.975 95.0312 240.959 95.0312C243.616 95.0312 245.748 94.4453 247.358 93.2734C248.967 92.1016 249.772 90.5469 249.772 88.6094ZM272.028 97H269.145V62.875H272.028V97ZM316.128 81.7891C316.128 84.9297 315.581 87.6875 314.487 90.0625C313.409 92.4375 311.862 94.2656 309.847 95.5469C307.831 96.8281 305.503 97.4688 302.862 97.4688C298.878 97.4688 295.659 96.0469 293.206 93.2031C290.753 90.3438 289.527 86.4922 289.527 81.6484V78.1328C289.527 75.0234 290.073 72.2734 291.167 69.8828C292.277 67.4766 293.839 65.6328 295.855 64.3516C297.87 63.0547 300.191 62.4062 302.816 62.4062C305.441 62.4062 307.753 63.0391 309.753 64.3047C311.769 65.5703 313.323 67.3594 314.417 69.6719C315.511 71.9844 316.081 74.6641 316.128 77.7109V81.7891ZM313.245 78.0859C313.245 73.9766 312.316 70.7578 310.456 68.4297C308.597 66.1016 306.05 64.9375 302.816 64.9375C299.644 64.9375 297.112 66.1094 295.222 68.4531C293.347 70.7812 292.409 74.0391 292.409 78.2266V81.7891C292.409 85.8359 293.347 89.0469 295.222 91.4219C297.097 93.7812 299.644 94.9609 302.862 94.9609C306.128 94.9609 308.675 93.7969 310.503 91.4688C312.331 89.125 313.245 85.8672 313.245 81.6953V78.0859ZM358.4 97H355.517L335.9 67.7969V97H332.994V62.875H335.9L355.541 92.1016V62.875H358.4V97Z" fill="#FFD3C5"/>
</svg>
