<svg width="180" height="36" viewBox="0 0 180 36" fill="none" xmlns="http://www.w3.org/2000/svg">
<path d="M24.8203 0.875V24.1719C24.8047 26.4688 24.2969 28.4688 23.2969 30.1719C22.2969 31.875 20.8828 33.1875 19.0547 34.1094C17.2422 35.0156 15.1562 35.4688 12.7969 35.4688C9.20312 35.4688 6.32031 34.4922 4.14844 32.5391C1.99219 30.5703 0.875 27.8516 0.796875 24.3828V0.875H3.65625V23.9609C3.65625 26.8359 4.47656 29.0703 6.11719 30.6641C7.75781 32.2422 9.98438 33.0312 12.7969 33.0312C15.6094 33.0312 17.8281 32.2344 19.4531 30.6406C21.0938 29.0469 21.9141 26.8281 21.9141 23.9844V0.875H24.8203ZM61.7719 26.6094C61.7719 24.7188 61.1078 23.2266 59.7797 22.1328C58.4516 21.0234 56.0219 19.9766 52.4906 18.9922C48.9594 17.9922 46.3812 16.9062 44.7562 15.7344C42.4437 14.0781 41.2875 11.9062 41.2875 9.21875C41.2875 6.60938 42.3578 4.49219 44.4984 2.86719C46.6547 1.22656 49.4047 0.40625 52.7484 0.40625C55.0141 0.40625 57.0375 0.84375 58.8187 1.71875C60.6156 2.59375 62.0062 3.8125 62.9906 5.375C63.975 6.9375 64.4672 8.67969 64.4672 10.6016H61.5609C61.5609 8.27344 60.7641 6.40625 59.1703 5C57.5766 3.57812 55.4359 2.86719 52.7484 2.86719C50.1391 2.86719 48.0609 3.45312 46.5141 4.625C44.9672 5.78125 44.1937 7.29688 44.1937 9.17188C44.1937 10.9062 44.8891 12.3203 46.2797 13.4141C47.6703 14.5078 49.8969 15.4766 52.9594 16.3203C56.0219 17.1484 58.3422 18.0156 59.9203 18.9219C61.4984 19.8125 62.6859 20.8828 63.4828 22.1328C64.2797 23.3828 64.6781 24.8594 64.6781 26.5625C64.6781 29.25 63.6 31.4062 61.4437 33.0312C59.3031 34.6562 56.475 35.4688 52.9594 35.4688C50.5531 35.4688 48.3422 35.0391 46.3266 34.1797C44.3266 33.3203 42.8031 32.1172 41.7562 30.5703C40.725 29.0234 40.2094 27.25 40.2094 25.25H43.0922C43.0922 27.6562 43.9906 29.5547 45.7875 30.9453C47.5844 32.3359 49.975 33.0312 52.9594 33.0312C55.6156 33.0312 57.7484 32.4453 59.3578 31.2734C60.9672 30.1016 61.7719 28.5469 61.7719 26.6094ZM99.3562 18.6406H83.3953V32.5625H101.747V35H80.5125V0.875H101.63V3.33594H83.3953V16.2031H99.3562V18.6406ZM130.191 20.7969H120.277V35H117.37V0.875H128.456C132.097 0.875 134.941 1.75781 136.988 3.52344C139.034 5.28906 140.058 7.75781 140.058 10.9297C140.058 13.1172 139.417 15.0469 138.136 16.7188C136.855 18.3906 135.136 19.5469 132.98 20.1875L141.511 34.6953V35H138.441L130.191 20.7969ZM120.277 18.3359H129.113C131.534 18.3359 133.48 17.6484 134.948 16.2734C136.417 14.8984 137.152 13.1172 137.152 10.9297C137.152 8.52344 136.386 6.65625 134.855 5.32812C133.323 4 131.175 3.33594 128.409 3.33594H120.277V18.3359ZM176.822 26.6094C176.822 24.7188 176.158 23.2266 174.83 22.1328C173.502 21.0234 171.072 19.9766 167.541 18.9922C164.009 17.9922 161.431 16.9062 159.806 15.7344C157.494 14.0781 156.337 11.9062 156.337 9.21875C156.337 6.60938 157.408 4.49219 159.548 2.86719C161.705 1.22656 164.455 0.40625 167.798 0.40625C170.064 0.40625 172.087 0.84375 173.869 1.71875C175.666 2.59375 177.056 3.8125 178.041 5.375C179.025 6.9375 179.517 8.67969 179.517 10.6016H176.611C176.611 8.27344 175.814 6.40625 174.22 5C172.627 3.57812 170.486 2.86719 167.798 2.86719C165.189 2.86719 163.111 3.45312 161.564 4.625C160.017 5.78125 159.244 7.29688 159.244 9.17188C159.244 10.9062 159.939 12.3203 161.33 13.4141C162.72 14.5078 164.947 15.4766 168.009 16.3203C171.072 17.1484 173.392 18.0156 174.97 18.9219C176.548 19.8125 177.736 20.8828 178.533 22.1328C179.33 23.3828 179.728 24.8594 179.728 26.5625C179.728 29.25 178.65 31.4062 176.494 33.0312C174.353 34.6562 171.525 35.4688 168.009 35.4688C165.603 35.4688 163.392 35.0391 161.377 34.1797C159.377 33.3203 157.853 32.1172 156.806 30.5703C155.775 29.0234 155.259 27.25 155.259 25.25H158.142C158.142 27.6562 159.041 29.5547 160.837 30.9453C162.634 32.3359 165.025 33.0312 168.009 33.0312C170.666 33.0312 172.798 32.4453 174.408 31.2734C176.017 30.1016 176.822 28.5469 176.822 26.6094Z" fill="white"/>
</svg>
