<svg width="662" height="98" viewBox="0 0 662 98" fill="none" xmlns="http://www.w3.org/2000/svg">
<path d="M1.3125 35V0.875H10.8516C13.6484 0.875 16.1562 1.51562 18.375 2.79688C20.5938 4.0625 22.3203 5.88281 23.5547 8.25781C24.8047 10.6328 25.4297 13.3359 25.4297 16.3672V19.5078C25.4297 22.5547 24.8125 25.2578 23.5781 27.6172C22.3438 29.9766 20.6016 31.7969 18.3516 33.0781C16.1172 34.3594 13.5469 35 10.6406 35H1.3125ZM4.19531 3.33594V32.5625H10.6641C14.2578 32.5625 17.1406 31.375 19.3125 29C21.4844 26.6094 22.5703 23.3828 22.5703 19.3203V16.3203C22.5703 12.3984 21.5 9.25781 19.3594 6.89844C17.2188 4.53906 14.3984 3.35156 10.8984 3.33594H4.19531ZM61.2094 18.6406H45.2484V32.5625H63.6V35H42.3656V0.875H63.4828V3.33594H45.2484V16.2031H61.2094V18.6406ZM98.6062 26.6094C98.6062 24.7188 97.9422 23.2266 96.6141 22.1328C95.2859 21.0234 92.8562 19.9766 89.325 18.9922C85.7937 17.9922 83.2156 16.9062 81.5906 15.7344C79.2781 14.0781 78.1219 11.9062 78.1219 9.21875C78.1219 6.60938 79.1922 4.49219 81.3328 2.86719C83.4891 1.22656 86.2391 0.40625 89.5828 0.40625C91.8484 0.40625 93.8719 0.84375 95.6531 1.71875C97.45 2.59375 98.8406 3.8125 99.825 5.375C100.809 6.9375 101.302 8.67969 101.302 10.6016H98.3953C98.3953 8.27344 97.5984 6.40625 96.0047 5C94.4109 3.57812 92.2703 2.86719 89.5828 2.86719C86.9734 2.86719 84.8953 3.45312 83.3484 4.625C81.8016 5.78125 81.0281 7.29688 81.0281 9.17188C81.0281 10.9062 81.7234 12.3203 83.1141 13.4141C84.5047 14.5078 86.7312 15.4766 89.7937 16.3203C92.8562 17.1484 95.1766 18.0156 96.7547 18.9219C98.3328 19.8125 99.5203 20.8828 100.317 22.1328C101.114 23.3828 101.512 24.8594 101.512 26.5625C101.512 29.25 100.434 31.4062 98.2781 33.0312C96.1375 34.6562 93.3094 35.4688 89.7937 35.4688C87.3875 35.4688 85.1766 35.0391 83.1609 34.1797C81.1609 33.3203 79.6375 32.1172 78.5906 30.5703C77.5594 29.0234 77.0437 27.25 77.0437 25.25H79.9266C79.9266 27.6562 80.825 29.5547 82.6219 30.9453C84.4187 32.3359 86.8094 33.0312 89.7937 33.0312C92.45 33.0312 94.5828 32.4453 96.1922 31.2734C97.8016 30.1016 98.6062 28.5469 98.6062 26.6094ZM120.863 35H117.98V0.875H120.863V35ZM164.377 30.9453C163.377 32.3672 161.806 33.4766 159.666 34.2734C157.541 35.0703 155.158 35.4688 152.517 35.4688C149.845 35.4688 147.47 34.8281 145.392 33.5469C143.314 32.2656 141.705 30.4531 140.564 28.1094C139.423 25.7656 138.845 23.0781 138.83 20.0469V15.7344C138.83 11 140.025 7.26562 142.416 4.53125C144.806 1.78125 148.017 0.40625 152.048 0.40625C155.564 0.40625 158.392 1.30469 160.533 3.10156C162.673 4.88281 163.947 7.34375 164.353 10.4844H161.47C161.048 7.98438 160.025 6.09375 158.4 4.8125C156.791 3.51563 154.681 2.86719 152.072 2.86719C148.884 2.86719 146.361 4 144.502 6.26562C142.642 8.53125 141.712 11.7266 141.712 15.8516V19.8828C141.712 22.4766 142.15 24.7734 143.025 26.7734C143.916 28.7578 145.181 30.2969 146.822 31.3906C148.478 32.4844 150.377 33.0312 152.517 33.0312C155.002 33.0312 157.134 32.6406 158.916 31.8594C160.072 31.3438 160.931 30.7422 161.494 30.0547V21.2422H152.33V18.8047H164.377V30.9453ZM207.562 35H204.68L185.062 5.79688V35H182.156V0.875H185.062L204.703 30.1016V0.875H207.562V35ZM244.678 18.6406H228.717V32.5625H247.069V35H225.834V0.875H246.952V3.33594H228.717V16.2031H244.678V18.6406ZM275.513 20.7969H265.598V35H262.692V0.875H273.778C277.419 0.875 280.263 1.75781 282.309 3.52344C284.356 5.28906 285.38 7.75781 285.38 10.9297C285.38 13.1172 284.739 15.0469 283.458 16.7188C282.177 18.3906 280.458 19.5469 278.302 20.1875L286.833 34.6953V35H283.763L275.513 20.7969ZM265.598 18.3359H274.434C276.856 18.3359 278.802 17.6484 280.27 16.2734C281.739 14.8984 282.473 13.1172 282.473 10.9297C282.473 8.52344 281.708 6.65625 280.177 5.32812C278.645 4 276.497 3.33594 273.731 3.33594H265.598V18.3359ZM301.777 37.9297H299.222L313.472 0.875H316.003L301.777 37.9297ZM331.509 35V0.875H341.048C343.845 0.875 346.353 1.51562 348.572 2.79688C350.791 4.0625 352.517 5.88281 353.752 8.25781C355.002 10.6328 355.627 13.3359 355.627 16.3672V19.5078C355.627 22.5547 355.009 25.2578 353.775 27.6172C352.541 29.9766 350.798 31.7969 348.548 33.0781C346.314 34.3594 343.744 35 340.837 35H331.509ZM334.392 3.33594V32.5625H340.861C344.455 32.5625 347.337 31.375 349.509 29C351.681 26.6094 352.767 23.3828 352.767 19.3203V16.3203C352.767 12.3984 351.697 9.25781 349.556 6.89844C347.416 4.53906 344.595 3.35156 341.095 3.33594H334.392ZM391.406 18.6406H375.445V32.5625H393.797V35H372.562V0.875H393.68V3.33594H375.445V16.2031H391.406V18.6406ZM419.78 30.7812L419.967 31.5078L420.178 30.7812L430.913 0.875H434.077L421.373 35H418.608L405.905 0.875H409.045L419.78 30.7812ZM467.559 18.6406H451.598V32.5625H469.95V35H448.716V0.875H469.833V3.33594H451.598V16.2031H467.559V18.6406ZM488.55 32.5625H505.402V35H485.644V0.875H488.55V32.5625ZM544.228 19.7891C544.228 22.9297 543.681 25.6875 542.588 28.0625C541.509 30.4375 539.963 32.2656 537.947 33.5469C535.931 34.8281 533.603 35.4688 530.963 35.4688C526.978 35.4688 523.759 34.0469 521.306 31.2031C518.853 28.3438 517.627 24.4922 517.627 19.6484V16.1328C517.627 13.0234 518.173 10.2734 519.267 7.88281C520.377 5.47656 521.939 3.63281 523.955 2.35156C525.97 1.05469 528.291 0.40625 530.916 0.40625C533.541 0.40625 535.853 1.03906 537.853 2.30469C539.869 3.57031 541.423 5.35938 542.517 7.67188C543.611 9.98438 544.181 12.6641 544.228 15.7109V19.7891ZM541.345 16.0859C541.345 11.9766 540.416 8.75781 538.556 6.42969C536.697 4.10156 534.15 2.9375 530.916 2.9375C527.744 2.9375 525.213 4.10938 523.322 6.45312C521.447 8.78125 520.509 12.0391 520.509 16.2266V19.7891C520.509 23.8359 521.447 27.0469 523.322 29.4219C525.197 31.7812 527.744 32.9609 530.963 32.9609C534.228 32.9609 536.775 31.7969 538.603 29.4688C540.431 27.125 541.345 23.8672 541.345 19.6953V16.0859ZM563.977 21.1016V35H561.094V0.875H572.719C576.266 0.875 579.062 1.78125 581.109 3.59375C583.172 5.40625 584.203 7.89844 584.203 11.0703C584.203 14.2734 583.211 16.75 581.227 18.5C579.258 20.2344 576.398 21.1016 572.648 21.1016H563.977ZM563.977 18.6641H572.719C575.516 18.6641 577.648 18 579.117 16.6719C580.586 15.3438 581.32 13.4922 581.32 11.1172C581.32 8.75781 580.586 6.88281 579.117 5.49219C577.664 4.08594 575.594 3.36719 572.906 3.33594H563.977V18.6641ZM619.116 18.6406H603.155V32.5625H621.506V35H600.272V0.875H621.389V3.33594H603.155V16.2031H619.116V18.6406ZM649.95 20.7969H640.036V35H637.13V0.875H648.216C651.856 0.875 654.7 1.75781 656.747 3.52344C658.794 5.28906 659.817 7.75781 659.817 10.9297C659.817 13.1172 659.177 15.0469 657.895 16.7188C656.614 18.3906 654.895 19.5469 652.739 20.1875L661.27 34.6953V35H658.2L649.95 20.7969ZM640.036 18.3359H648.872C651.294 18.3359 653.239 17.6484 654.708 16.2734C656.177 14.8984 656.911 13.1172 656.911 10.9297C656.911 8.52344 656.145 6.65625 654.614 5.32812C653.083 4 650.934 3.33594 648.169 3.33594H640.036V18.3359Z" fill="white"/>
<path d="M25.4766 86.3594C25.0859 89.9531 23.7969 92.7031 21.6094 94.6094C19.4375 96.5156 16.5391 97.4688 12.9141 97.4688C10.3828 97.4688 8.14062 96.8359 6.1875 95.5703C4.25 94.3047 2.75 92.5156 1.6875 90.2031C0.625 87.875 0.0859375 85.2188 0.0703125 82.2344V77.8047C0.0703125 74.7734 0.601562 72.0859 1.66406 69.7422C2.72656 67.3984 4.25 65.5938 6.23438 64.3281C8.23438 63.0469 10.5312 62.4062 13.125 62.4062C16.7812 62.4062 19.6641 63.3984 21.7734 65.3828C23.8984 67.3516 25.1328 70.0781 25.4766 73.5625H22.5703C21.8516 67.7656 18.7031 64.8672 13.125 64.8672C10.0312 64.8672 7.5625 66.0234 5.71875 68.3359C3.89062 70.6484 2.97656 73.8438 2.97656 77.9219V82.0938C2.97656 86.0312 3.86719 89.1719 5.64844 91.5156C7.44531 93.8594 9.86719 95.0312 12.9141 95.0312C15.9297 95.0312 18.2031 94.3125 19.7344 92.875C21.2656 91.4219 22.2109 89.25 22.5703 86.3594H25.4766ZM67.3031 81.7891C67.3031 84.9297 66.7562 87.6875 65.6625 90.0625C64.5844 92.4375 63.0375 94.2656 61.0219 95.5469C59.0062 96.8281 56.6781 97.4688 54.0375 97.4688C50.0531 97.4688 46.8344 96.0469 44.3812 93.2031C41.9281 90.3438 40.7016 86.4922 40.7016 81.6484V78.1328C40.7016 75.0234 41.2484 72.2734 42.3422 69.8828C43.4516 67.4766 45.0141 65.6328 47.0297 64.3516C49.0453 63.0547 51.3656 62.4062 53.9906 62.4062C56.6156 62.4062 58.9281 63.0391 60.9281 64.3047C62.9437 65.5703 64.4984 67.3594 65.5922 69.6719C66.6859 71.9844 67.2562 74.6641 67.3031 77.7109V81.7891ZM64.4203 78.0859C64.4203 73.9766 63.4906 70.7578 61.6312 68.4297C59.7719 66.1016 57.225 64.9375 53.9906 64.9375C50.8187 64.9375 48.2875 66.1094 46.3969 68.4531C44.5219 70.7812 43.5844 74.0391 43.5844 78.2266V81.7891C43.5844 85.8359 44.5219 89.0469 46.3969 91.4219C48.2719 93.7812 50.8187 94.9609 54.0375 94.9609C57.3031 94.9609 59.85 93.7969 61.6781 91.4688C63.5062 89.125 64.4203 85.8672 64.4203 81.6953V78.0859ZM87.075 94.5625H103.927V97H84.1687V62.875H87.075V94.5625ZM121.988 94.5625H138.839V97H119.081V62.875H121.988V94.5625ZM172.884 87.4375H157.392L153.877 97H150.853L163.767 62.875H166.509L179.423 97H176.423L172.884 87.4375ZM158.283 84.9766H171.97L165.127 66.3906L158.283 84.9766ZM194.062 97V62.875H204.141C207.797 62.875 210.57 63.6328 212.461 65.1484C214.352 66.6484 215.297 68.8672 215.297 71.8047C215.297 73.5703 214.812 75.1094 213.844 76.4219C212.891 77.7188 211.578 78.6484 209.906 79.2109C211.891 79.6484 213.484 80.625 214.688 82.1406C215.906 83.6562 216.516 85.4062 216.516 87.3906C216.516 90.4062 215.539 92.7656 213.586 94.4688C211.648 96.1562 208.945 97 205.477 97H194.062ZM196.945 80.5938V94.5625H205.594C208.062 94.5625 210.016 93.9375 211.453 92.6875C212.906 91.4219 213.633 89.6719 213.633 87.4375C213.633 85.3281 212.938 83.6641 211.547 82.4453C210.172 81.2109 208.266 80.5938 205.828 80.5938H196.945ZM196.945 78.1797H204.82C207.227 78.1328 209.086 77.5703 210.398 76.4922C211.727 75.3984 212.391 73.8125 212.391 71.7344C212.391 69.5469 211.703 67.9375 210.328 66.9062C208.969 65.8594 206.906 65.3359 204.141 65.3359H196.945V78.1797ZM258.319 81.7891C258.319 84.9297 257.772 87.6875 256.678 90.0625C255.6 92.4375 254.053 94.2656 252.038 95.5469C250.022 96.8281 247.694 97.4688 245.053 97.4688C241.069 97.4688 237.85 96.0469 235.397 93.2031C232.944 90.3438 231.717 86.4922 231.717 81.6484V78.1328C231.717 75.0234 232.264 72.2734 233.358 69.8828C234.467 67.4766 236.03 65.6328 238.045 64.3516C240.061 63.0547 242.381 62.4062 245.006 62.4062C247.631 62.4062 249.944 63.0391 251.944 64.3047C253.959 65.5703 255.514 67.3594 256.608 69.6719C257.702 71.9844 258.272 74.6641 258.319 77.7109V81.7891ZM255.436 78.0859C255.436 73.9766 254.506 70.7578 252.647 68.4297C250.788 66.1016 248.241 64.9375 245.006 64.9375C241.834 64.9375 239.303 66.1094 237.413 68.4531C235.538 70.7812 234.6 74.0391 234.6 78.2266V81.7891C234.6 85.8359 235.538 89.0469 237.413 91.4219C239.288 93.7812 241.834 94.9609 245.053 94.9609C248.319 94.9609 250.866 93.7969 252.694 91.4688C254.522 89.125 255.436 85.8672 255.436 81.6953V78.0859ZM287.934 82.7969H278.02V97H275.114V62.875H286.2C289.841 62.875 292.684 63.7578 294.731 65.5234C296.778 67.2891 297.802 69.7578 297.802 72.9297C297.802 75.1172 297.161 77.0469 295.88 78.7188C294.598 80.3906 292.88 81.5469 290.723 82.1875L299.255 96.6953V97H296.184L287.934 82.7969ZM278.02 80.3359H286.856C289.278 80.3359 291.223 79.6484 292.692 78.2734C294.161 76.8984 294.895 75.1172 294.895 72.9297C294.895 70.5234 294.13 68.6562 292.598 67.3281C291.067 66 288.919 65.3359 286.153 65.3359H278.02V80.3359ZM333.675 87.4375H318.183L314.667 97H311.644L324.558 62.875H327.3L340.214 97H337.214L333.675 87.4375ZM319.073 84.9766H332.761L325.917 66.3906L319.073 84.9766ZM374.962 65.3359H363.267V97H360.384V65.3359H348.712V62.875H374.962V65.3359ZM393.609 97H390.727V62.875H393.609V97ZM437.709 81.7891C437.709 84.9297 437.163 87.6875 436.069 90.0625C434.991 92.4375 433.444 94.2656 431.428 95.5469C429.413 96.8281 427.084 97.4688 424.444 97.4688C420.459 97.4688 417.241 96.0469 414.788 93.2031C412.334 90.3438 411.108 86.4922 411.108 81.6484V78.1328C411.108 75.0234 411.655 72.2734 412.748 69.8828C413.858 67.4766 415.42 65.6328 417.436 64.3516C419.452 63.0547 421.772 62.4062 424.397 62.4062C427.022 62.4062 429.334 63.0391 431.334 64.3047C433.35 65.5703 434.905 67.3594 435.998 69.6719C437.092 71.9844 437.663 74.6641 437.709 77.7109V81.7891ZM434.827 78.0859C434.827 73.9766 433.897 70.7578 432.038 68.4297C430.178 66.1016 427.631 64.9375 424.397 64.9375C421.225 64.9375 418.694 66.1094 416.803 68.4531C414.928 70.7812 413.991 74.0391 413.991 78.2266V81.7891C413.991 85.8359 414.928 89.0469 416.803 91.4219C418.678 93.7812 421.225 94.9609 424.444 94.9609C427.709 94.9609 430.256 93.7969 432.084 91.4688C433.913 89.125 434.827 85.8672 434.827 81.6953V78.0859ZM479.981 97H477.098L457.481 67.7969V97H454.575V62.875H457.481L477.122 92.1016V62.875H479.981V97Z" fill="#FFD3C5"/>
</svg>
