<svg width="261" height="98" viewBox="0 0 261 98" fill="none" xmlns="http://www.w3.org/2000/svg">
<path d="M0.434372 35V0.875H9.97343C12.7703 0.875 15.2781 1.51562 17.4969 2.79688C19.7156 4.0625 21.4422 5.88281 22.6766 8.25781C23.9266 10.6328 24.5516 13.3359 24.5516 16.3672V19.5078C24.5516 22.5547 23.9344 25.2578 22.7 27.6172C21.4656 29.9766 19.7234 31.7969 17.4734 33.0781C15.2391 34.3594 12.6687 35 9.7625 35H0.434372ZM3.31718 3.33594V32.5625H9.78593C13.3797 32.5625 16.2625 31.375 18.4344 29C20.6062 26.6094 21.6922 23.3828 21.6922 19.3203V16.3203C21.6922 12.3984 20.6219 9.25781 18.4812 6.89844C16.3406 4.53906 13.5203 3.35156 10.0203 3.33594H3.31718ZM50.4641 19.4844L60.8937 0.875H64.2219L51.8937 22.1562V35H49.0109V22.1562L36.7062 0.875H40.1281L50.4641 19.4844ZM104.197 35H101.314L81.6969 5.79688V35H78.7906V0.875H81.6969L101.337 30.1016V0.875H104.197V35ZM141.312 25.4375H125.82L122.305 35H119.281L132.195 0.875H134.938L147.852 35H144.852L141.312 25.4375ZM126.711 22.9766H140.398L133.555 4.39062L126.711 22.9766ZM166.311 0.875L178.897 30.9922L191.53 0.875H195.373V35H192.491V20.1406L192.725 4.90625L180.022 35H177.795L165.139 5.02344L165.373 20.0469V35H162.491V0.875H166.311ZM217.138 35H214.255V0.875H217.138V35ZM260.183 24.3594C259.792 27.9531 258.503 30.7031 256.316 32.6094C254.144 34.5156 251.245 35.4688 247.62 35.4688C245.089 35.4688 242.847 34.8359 240.894 33.5703C238.956 32.3047 237.456 30.5156 236.394 28.2031C235.331 25.875 234.792 23.2188 234.777 20.2344V15.8047C234.777 12.7734 235.308 10.0859 236.37 7.74219C237.433 5.39844 238.956 3.59375 240.941 2.32812C242.941 1.04687 245.237 0.40625 247.831 0.40625C251.487 0.40625 254.37 1.39844 256.48 3.38281C258.605 5.35156 259.839 8.07812 260.183 11.5625H257.277C256.558 5.76562 253.409 2.86719 247.831 2.86719C244.737 2.86719 242.269 4.02344 240.425 6.33594C238.597 8.64844 237.683 11.8438 237.683 15.9219V20.0938C237.683 24.0312 238.573 27.1719 240.355 29.5156C242.152 31.8594 244.573 33.0312 247.62 33.0312C250.636 33.0312 252.909 32.3125 254.441 30.875C255.972 29.4219 256.917 27.25 257.277 24.3594H260.183Z" fill="white"/>
<path d="M20.5391 62.875L33.125 92.9922L45.7578 62.875H49.6016V97H46.7188V82.1406L46.9531 66.9062L34.25 97H32.0234L19.3672 67.0234L19.6016 82.0469V97H16.7188V62.875H20.5391ZM86.6938 80.6406H70.7328V94.5625H89.0844V97H67.85V62.875H88.9672V65.3359H70.7328V78.2031H86.6938V80.6406ZM104.778 97V62.875H114.317C117.114 62.875 119.622 63.5156 121.841 64.7969C124.059 66.0625 125.786 67.8828 127.02 70.2578C128.27 72.6328 128.895 75.3359 128.895 78.3672V81.5078C128.895 84.5547 128.278 87.2578 127.044 89.6172C125.809 91.9766 124.067 93.7969 121.817 95.0781C119.583 96.3594 117.012 97 114.106 97H104.778ZM107.661 65.3359V94.5625H114.13C117.723 94.5625 120.606 93.375 122.778 91C124.95 88.6094 126.036 85.3828 126.036 81.3203V78.3203C126.036 74.3984 124.966 71.2578 122.825 68.8984C120.684 66.5391 117.864 65.3516 114.364 65.3359H107.661ZM149.347 97H146.464V62.875H149.347V97ZM191.736 62.875V86.1719C191.72 88.4688 191.212 90.4688 190.212 92.1719C189.212 93.875 187.798 95.1875 185.97 96.1094C184.158 97.0156 182.072 97.4688 179.712 97.4688C176.119 97.4688 173.236 96.4922 171.064 94.5391C168.908 92.5703 167.791 89.8516 167.712 86.3828V62.875H170.572V85.9609C170.572 88.8359 171.392 91.0703 173.033 92.6641C174.673 94.2422 176.9 95.0312 179.712 95.0312C182.525 95.0312 184.744 94.2344 186.369 92.6406C188.009 91.0469 188.83 88.8281 188.83 85.9844V62.875H191.736ZM213.195 62.875L225.781 92.9922L238.414 62.875H242.258V97H239.375V82.1406L239.609 66.9062L226.906 97H224.68L212.023 67.0234L212.258 82.0469V97H209.375V62.875H213.195Z" fill="#FFD3C5"/>
</svg>
