<svg width="338" height="97" viewBox="0 0 338 97" fill="none" xmlns="http://www.w3.org/2000/svg">
<path d="M19.1562 18.6406H3.19531V32.5625H21.5469V35H0.3125V0.875H21.4297V3.33594H3.19531V16.2031H19.1562V18.6406ZM62.6469 35H59.7641L40.1469 5.79688V35H37.2406V0.875H40.1469L59.7875 30.1016V0.875H62.6469V35ZM80.9187 35V0.875H90.4578C93.2547 0.875 95.7625 1.51562 97.9812 2.79688C100.2 4.0625 101.927 5.88281 103.161 8.25781C104.411 10.6328 105.036 13.3359 105.036 16.3672V19.5078C105.036 22.5547 104.419 25.2578 103.184 27.6172C101.95 29.9766 100.208 31.7969 97.9578 33.0781C95.7234 34.3594 93.1531 35 90.2469 35H80.9187ZM83.8016 3.33594V32.5625H90.2703C93.8641 32.5625 96.7469 31.375 98.9187 29C101.091 26.6094 102.177 23.3828 102.177 19.3203V16.3203C102.177 12.3984 101.106 9.25781 98.9656 6.89844C96.825 4.53906 94.0047 3.35156 90.5047 3.33594H83.8016ZM130.034 21.125H118.808V18.7578H130.034V21.125ZM168.814 0.875V24.1719C168.798 26.4688 168.291 28.4688 167.291 30.1719C166.291 31.875 164.877 33.1875 163.048 34.1094C161.236 35.0156 159.15 35.4688 156.791 35.4688C153.197 35.4688 150.314 34.4922 148.142 32.5391C145.986 30.5703 144.869 27.8516 144.791 24.3828V0.875H147.65V23.9609C147.65 26.8359 148.47 29.0703 150.111 30.6641C151.752 32.2422 153.978 33.0312 156.791 33.0312C159.603 33.0312 161.822 32.2344 163.447 30.6406C165.087 29.0469 165.908 26.8281 165.908 23.9844V0.875H168.814ZM205.766 26.6094C205.766 24.7188 205.102 23.2266 203.773 22.1328C202.445 21.0234 200.016 19.9766 196.484 18.9922C192.953 17.9922 190.375 16.9062 188.75 15.7344C186.438 14.0781 185.281 11.9062 185.281 9.21875C185.281 6.60938 186.352 4.49219 188.492 2.86719C190.648 1.22656 193.398 0.40625 196.742 0.40625C199.008 0.40625 201.031 0.84375 202.812 1.71875C204.609 2.59375 206 3.8125 206.984 5.375C207.969 6.9375 208.461 8.67969 208.461 10.6016H205.555C205.555 8.27344 204.758 6.40625 203.164 5C201.57 3.57812 199.43 2.86719 196.742 2.86719C194.133 2.86719 192.055 3.45312 190.508 4.625C188.961 5.78125 188.188 7.29688 188.188 9.17188C188.188 10.9062 188.883 12.3203 190.273 13.4141C191.664 14.5078 193.891 15.4766 196.953 16.3203C200.016 17.1484 202.336 18.0156 203.914 18.9219C205.492 19.8125 206.68 20.8828 207.477 22.1328C208.273 23.3828 208.672 24.8594 208.672 26.5625C208.672 29.25 207.594 31.4062 205.438 33.0312C203.297 34.6562 200.469 35.4688 196.953 35.4688C194.547 35.4688 192.336 35.0391 190.32 34.1797C188.32 33.3203 186.797 32.1172 185.75 30.5703C184.719 29.0234 184.203 27.25 184.203 25.25H187.086C187.086 27.6562 187.984 29.5547 189.781 30.9453C191.578 32.3359 193.969 33.0312 196.953 33.0312C199.609 33.0312 201.742 32.4453 203.352 31.2734C204.961 30.1016 205.766 28.5469 205.766 26.6094ZM243.35 18.6406H227.389V32.5625H245.741V35H224.506V0.875H245.623V3.33594H227.389V16.2031H243.35V18.6406ZM274.184 20.7969H264.27V35H261.364V0.875H272.45C276.091 0.875 278.934 1.75781 280.981 3.52344C283.028 5.28906 284.052 7.75781 284.052 10.9297C284.052 13.1172 283.411 15.0469 282.13 16.7188C280.848 18.3906 279.13 19.5469 276.973 20.1875L285.505 34.6953V35H282.434L274.184 20.7969ZM264.27 18.3359H273.106C275.528 18.3359 277.473 17.6484 278.942 16.2734C280.411 14.8984 281.145 13.1172 281.145 10.9297C281.145 8.52344 280.38 6.65625 278.848 5.32812C277.317 4 275.169 3.33594 272.403 3.33594H264.27V18.3359Z" fill="white"/>
<path d="M19.1562 80.6406H3.19531V94.5625H21.5469V97H0.3125V62.875H21.4297V65.3359H3.19531V78.2031H19.1562V80.6406ZM62.6469 97H59.7641L40.1469 67.7969V97H37.2406V62.875H40.1469L59.7875 92.1016V62.875H62.6469V97ZM80.9187 97V62.875H90.4578C93.2547 62.875 95.7625 63.5156 97.9812 64.7969C100.2 66.0625 101.927 67.8828 103.161 70.2578C104.411 72.6328 105.036 75.3359 105.036 78.3672V81.5078C105.036 84.5547 104.419 87.2578 103.184 89.6172C101.95 91.9766 100.208 93.7969 97.9578 95.0781C95.7234 96.3594 93.1531 97 90.2469 97H80.9187ZM83.8016 65.3359V94.5625H90.2703C93.8641 94.5625 96.7469 93.375 98.9187 91C101.091 88.6094 102.177 85.3828 102.177 81.3203V78.3203C102.177 74.3984 101.106 71.2578 98.9656 68.8984C96.825 66.5391 94.0047 65.3516 90.5047 65.3359H83.8016ZM130.034 83.125H118.808V80.7578H130.034V83.125ZM149.127 62.875L161.712 92.9922L174.345 62.875H178.189V97H175.306V82.1406L175.541 66.9062L162.837 97H160.611L147.955 67.0234L148.189 82.0469V97H145.306V62.875H149.127ZM215.281 87.4375H199.789L196.273 97H193.25L206.164 62.875H208.906L221.82 97H218.82L215.281 87.4375ZM200.68 84.9766H214.367L207.523 66.3906L200.68 84.9766ZM244.147 80.0547L239.342 84.7891V97H236.459V62.875H239.342V81.2734L256.827 62.875H260.459L246.163 78.0625L261.561 97H258.045L244.147 80.0547ZM295.184 80.6406H279.223V94.5625H297.575V97H276.341V62.875H297.458V65.3359H279.223V78.2031H295.184V80.6406ZM326.019 82.7969H316.105V97H313.198V62.875H324.284C327.925 62.875 330.769 63.7578 332.816 65.5234C334.862 67.2891 335.886 69.7578 335.886 72.9297C335.886 75.1172 335.245 77.0469 333.964 78.7188C332.683 80.3906 330.964 81.5469 328.808 82.1875L337.339 96.6953V97H334.269L326.019 82.7969ZM316.105 80.3359H324.941C327.362 80.3359 329.308 79.6484 330.777 78.2734C332.245 76.8984 332.98 75.1172 332.98 72.9297C332.98 70.5234 332.214 68.6562 330.683 67.3281C329.152 66 327.003 65.3359 324.237 65.3359H316.105V80.3359Z" fill="#FFD3C5"/>
</svg>
