<svg width="840" height="217" viewBox="0 0 840 217" fill="none" xmlns="http://www.w3.org/2000/svg">
<path d="M361.504 113.86C386.877 113.86 399.536 127.466 399.536 154.733C399.536 168.667 396.681 178.94 391.025 185.661C385.368 192.383 376.641 195.716 364.844 195.716H334.246C335.162 195.333 335.916 194.35 336.455 192.765C336.993 191.18 337.263 188.394 337.263 184.459V125.007C337.263 121.073 336.993 118.286 336.455 116.701C335.916 115.116 335.162 114.133 334.246 113.86H361.504ZM382.621 185.115C384.614 181.782 386.123 177.574 387.038 172.602C387.954 167.629 388.439 161.673 388.439 154.733C388.439 141.4 386.23 131.4 381.759 124.679C377.234 117.849 370.5 114.406 361.612 114.406H347.498V195.06H364.736C372.763 195.06 378.742 191.781 382.621 185.115ZM364.844 128.832L365.598 129.597L364.844 131.673L364.09 129.597L364.844 128.832ZM364.844 133.422L365.598 134.187L364.844 136.264L364.09 134.187L364.844 133.422Z" fill="white"/>
<path d="M430.855 194.854C434.35 194.854 437.631 193.778 440.589 191.624C443.547 189.47 445.967 186.402 447.741 182.471L448.71 183.01L448.387 183.548C446.505 187.425 444.031 190.44 440.965 192.539C437.9 194.639 434.512 195.716 430.855 195.716C422.627 195.716 416.119 193.724 411.333 189.686C406.547 185.648 403.696 179.833 402.782 172.134C402.782 171.865 402.782 171.596 402.728 171.327C402.675 171.058 402.675 170.788 402.675 170.412C402.675 170.25 402.675 170.142 402.621 170.089C402.567 170.035 402.567 169.927 402.567 169.766C402.567 169.173 402.567 168.635 402.513 168.043C402.459 167.45 402.459 166.912 402.459 166.32C402.459 156.898 404.557 149.738 408.752 144.731C412.946 139.724 418.97 137.247 426.821 137.247C435.211 137.247 441.396 139.993 445.483 145.538C449.14 150.491 451.022 157.76 451.183 167.289H412.893V167.397V169.766C413.269 177.949 414.936 184.194 418.002 188.448C421.013 192.755 425.316 194.854 430.855 194.854ZM412.893 166.643H441.718V166.428C441.718 157.598 440.589 150.761 438.276 145.969C435.641 140.747 431.823 138.108 426.875 138.108C422.519 138.108 419.077 140.424 416.657 145C414.13 149.791 412.893 156.898 412.893 166.32V166.643ZM427.682 147.261L428.435 148.015L427.682 150.061L426.929 148.015L427.682 147.261Z" fill="white"/>
<path d="M494.507 167.761C498.125 170.975 499.907 174.777 499.907 179.222C499.907 181.739 499.367 183.988 498.341 185.969C497.315 187.951 495.803 189.718 493.913 191.164C492.023 192.61 489.7 193.734 487 194.538C484.3 195.341 481.33 195.716 478.089 195.716C473.985 195.716 470.151 194.805 466.533 192.931C462.914 191.057 459.998 188.54 457.676 185.327C456.434 183.827 455.948 182.113 456.11 180.186C456.272 178.258 457.082 176.651 458.54 175.366C460.106 174.027 461.888 173.384 463.886 173.545C465.884 173.706 467.559 174.563 468.909 176.116C470.205 177.615 470.799 179.382 470.637 181.364C470.475 183.345 469.665 185.005 468.153 186.291C467.127 187.147 466.046 187.683 464.858 187.951C463.67 188.218 462.482 188.165 461.348 187.79C461.834 188.272 462.374 188.754 462.86 189.182C463.346 189.611 463.886 189.986 464.48 190.361C468.585 193.199 473.121 194.645 478.089 194.645C481.762 194.645 484.678 193.306 486.892 190.682C489.106 188.058 490.186 184.523 490.186 180.186C490.186 177.669 488.944 175.58 486.46 173.813C483.976 172.046 480.52 170.921 476.145 170.332C469.827 169.529 464.858 167.601 461.348 164.441C457.838 161.282 456.056 157.372 456.056 152.66C456.056 150.25 456.542 148.001 457.514 145.966C458.486 143.931 459.89 142.217 461.672 140.771C463.454 139.325 465.614 138.254 468.099 137.451C470.583 136.647 473.337 136.273 476.361 136.273C478.953 136.273 481.438 136.647 483.76 137.397C486.082 138.147 488.242 139.432 490.186 141.307C490.456 141.521 490.726 141.788 490.942 142.056C492.293 143.556 492.941 145.323 492.779 147.304C492.617 149.286 491.807 150.999 490.294 152.338C488.782 153.624 487 154.213 485.002 154.052C483.004 153.891 481.276 153.088 479.926 151.589C478.629 150.089 478.035 148.322 478.197 146.34C478.359 144.359 479.17 142.645 480.682 141.307C481.492 140.61 482.356 140.075 483.328 139.807C484.3 139.539 485.272 139.432 486.298 139.593C483.436 137.933 480.088 137.129 476.361 137.129C473.067 137.129 470.367 138.468 468.369 141.146C466.37 143.823 465.344 147.358 465.344 151.803C465.344 154.32 466.479 156.408 468.747 158.122C471.015 159.836 474.255 160.96 478.413 161.549C485.38 162.567 490.726 164.655 494.507 167.761ZM472.257 147.519L473.121 146.769L473.769 147.519L473.121 149.554L472.257 147.519Z" fill="white"/>
<path d="M520.371 195.498V195.607L520.263 195.716H501.964L501.856 195.607V195.498H502.506C503.101 195.498 503.588 195.335 504.076 195.063C504.563 194.791 504.942 194.247 505.321 193.431C505.7 192.614 505.97 191.526 506.133 190.057C506.295 188.588 506.404 186.738 506.404 184.399V148.924C506.404 146.584 506.295 144.734 506.133 143.265C505.97 141.796 505.7 140.654 505.321 139.837C504.942 139.021 504.563 138.423 504.076 138.151C503.588 137.879 503.101 137.715 502.506 137.715H501.856L501.964 137.607H515.932V184.399C515.932 186.738 516.04 188.588 516.202 190.057C516.365 191.526 516.636 192.614 516.96 193.431C517.285 194.247 517.718 194.791 518.206 195.063C518.693 195.335 519.234 195.498 519.83 195.498H520.371ZM515.715 126.834C514.199 128.194 512.413 128.847 510.41 128.684C508.407 128.52 506.728 127.65 505.429 126.072C504.076 124.548 503.426 122.753 503.588 120.74C503.751 118.727 504.617 117.04 506.187 115.734C507.703 114.374 509.489 113.721 511.492 113.884C513.496 114.047 515.174 114.864 516.473 116.387C517.827 117.965 518.476 119.76 518.314 121.774C518.151 123.787 517.285 125.473 515.715 126.834Z" fill="white"/>
<path d="M575.809 138.33C575.863 138.384 575.917 138.492 575.917 138.546H575.268C574.026 138.546 573.107 139.465 572.405 141.303C571.702 143.141 571.378 146.385 571.378 150.98V191.96C571.378 193.636 571.27 195.366 571 197.15C570.73 198.934 570.406 200.664 569.919 202.286C569.433 203.908 568.839 205.421 568.082 206.827C567.326 208.233 566.462 209.368 565.543 210.233C561.167 214.179 554.575 216.18 545.769 216.18C536.908 216.18 530.803 215.153 527.507 213.044C526.805 212.612 526.156 212.125 525.67 211.53C524.319 210.017 523.671 208.233 523.833 206.232C523.995 204.232 524.86 202.502 526.426 201.15C527.939 199.853 529.722 199.258 531.721 199.42C533.72 199.583 535.395 200.394 536.692 201.907C538.043 203.421 538.691 205.205 538.529 207.205C538.367 209.206 537.502 210.936 535.935 212.287C535.503 212.666 535.017 212.99 534.477 213.26C533.936 213.531 533.396 213.747 532.802 213.909C534.369 214.288 536.26 214.558 538.367 214.72C540.474 214.882 542.905 214.99 545.661 214.99C551.117 214.99 555.224 213.531 557.979 210.557C558.627 209.909 559.168 209.044 559.6 207.908C560.032 206.773 560.41 205.584 560.735 204.232C561.059 202.88 561.275 201.529 561.437 200.123C561.599 198.718 561.653 197.366 561.653 196.069V175.957C560.627 182.283 558.465 187.202 555.116 190.716C551.766 194.23 547.714 195.96 542.959 195.96C529.182 195.96 522.32 186.554 522.32 167.74C522.32 157.63 524.211 150.169 528.047 145.25C531.505 140.762 536.476 138.546 542.959 138.546C547.714 138.546 551.766 140.384 555.116 144.006C558.465 147.628 560.627 152.764 561.653 159.306V138.222H575.809V138.33ZM543.608 194.987C546.255 194.987 548.74 194.339 550.955 193.041C553.171 191.744 555.116 189.905 556.682 187.527C558.249 185.148 559.492 182.283 560.356 178.931C561.221 175.579 561.653 171.848 561.653 167.74C561.653 163.577 561.221 159.738 560.356 156.224C559.492 152.71 558.249 149.737 556.682 147.304C555.116 144.871 553.171 142.925 550.955 141.573C548.74 140.222 546.255 139.519 543.608 139.519C540.312 139.519 537.718 141.736 535.827 146.115C533.882 150.818 532.91 158.008 532.91 167.74C532.91 177.093 533.882 184.067 535.827 188.608C537.664 192.879 540.258 194.987 543.608 194.987ZM545.336 146.872L546.093 147.628L545.336 149.683L544.58 147.628L545.336 146.872Z" fill="white"/>
<path d="M631.462 195.497V195.606L631.355 195.716H613.23L613.016 195.606V195.497H613.658C614.299 195.497 614.834 195.333 615.262 195.059C615.69 194.785 616.117 194.238 616.492 193.416C616.866 192.595 617.08 191.446 617.294 189.967C617.454 188.489 617.561 186.573 617.561 184.219V160.788C617.561 155.258 617.133 150.769 616.331 147.43C615.529 144.09 614.299 141.681 612.642 140.203V140.094C612.268 139.82 611.787 139.492 611.145 139.163C610.503 138.835 609.701 138.616 608.793 138.451C607.884 138.287 606.761 138.287 605.531 138.451C604.301 138.616 602.858 138.999 601.307 139.656C600.452 139.93 599.597 140.422 598.741 141.079C597.939 141.681 597.137 142.393 596.228 143.324C595.319 144.255 594.517 145.404 593.715 146.773V146.992V147.539V184.329C593.715 186.683 593.822 188.544 593.983 190.022C594.143 191.5 594.41 192.65 594.731 193.471C595.052 194.292 595.48 194.895 595.961 195.168C596.442 195.442 597.03 195.606 597.565 195.606H598.1L597.993 195.716H579.921H579.814V195.606H580.349C580.937 195.606 581.472 195.442 581.953 195.168C582.434 194.895 582.862 194.347 583.236 193.526C583.61 192.705 583.878 191.555 584.038 190.077C584.199 188.599 584.305 186.683 584.305 184.329V148.634C584.305 146.28 584.199 144.419 584.038 142.941C583.878 141.463 583.61 140.368 583.236 139.546C582.862 138.725 582.434 138.178 581.953 137.904C581.472 137.63 580.937 137.466 580.349 137.466H579.814V137.357V137.247H579.921H593.715V144.693C594.143 144.09 594.838 143.379 595.747 142.503C596.656 141.627 597.939 140.696 599.49 139.656C600.933 138.725 602.484 138.123 604.195 137.849C605.905 137.576 607.456 137.521 608.899 137.576C610.61 137.63 612.268 137.849 613.925 138.232C615.583 138.616 617.133 139.218 618.577 140.039C620.02 140.86 621.25 142.01 622.266 143.488C625.313 147.485 626.864 153.288 626.864 160.788V184.219C626.864 186.573 626.971 188.489 627.131 189.967C627.292 191.446 627.559 192.595 627.933 193.416C628.307 194.238 628.682 194.785 629.163 195.059C629.644 195.333 630.179 195.497 630.82 195.497H631.462ZM605.959 154.656L606.707 155.423L605.959 157.394L605.21 155.423L605.959 154.656Z" fill="white"/>
<path d="M729.884 113.86V117.456C729.508 116.53 728.596 115.767 727.04 115.222C725.483 114.677 722.746 114.405 718.829 114.405H704.232V184.598C704.232 188.522 704.501 191.247 705.037 192.827C705.574 194.408 706.325 195.334 707.237 195.716H691.138C692.05 195.334 692.802 194.408 693.285 192.827C693.768 191.247 694.036 188.522 694.036 184.598V114.405H679.439C675.575 114.405 672.892 114.677 671.336 115.222C669.78 115.767 668.867 116.53 668.492 117.456V113.86H729.884Z" fill="white"/>
<path d="M742.011 136.273C750.079 136.273 756.211 138.803 760.514 143.918C764.817 149.033 766.914 156.356 766.914 165.994C766.914 175.632 764.763 182.955 760.514 188.07C756.211 193.185 750.079 195.716 742.011 195.716C733.943 195.716 727.812 193.185 723.563 188.07C719.313 182.955 717.216 175.632 717.216 165.994C717.216 156.356 719.313 149.033 723.563 143.918C727.812 138.857 733.943 136.273 742.011 136.273ZM742.011 195.177C746.744 195.177 750.348 192.701 752.876 187.693C755.404 182.686 756.695 175.471 756.695 165.994C756.695 156.948 755.512 149.949 753.145 144.995C750.617 139.557 746.906 136.811 742.011 136.811C737.278 136.811 733.674 139.288 731.2 144.295C728.726 149.303 727.435 156.518 727.435 165.994C727.435 175.094 728.618 182.147 730.985 187.101C733.405 192.485 737.063 195.177 742.011 195.177ZM742.764 147.795L743.517 148.549L742.764 150.595L742.011 148.549L742.764 147.795Z" fill="white"/>
<path d="M794.145 136.273C802.371 136.273 808.623 138.803 813.01 143.918C817.397 149.033 819.536 156.356 819.536 165.994C819.536 175.632 817.342 182.955 813.01 188.07C808.623 193.185 802.371 195.716 794.145 195.716C785.919 195.716 779.667 193.185 775.334 188.07C771.002 182.955 768.863 175.632 768.863 165.994C768.863 156.356 771.002 149.033 775.334 143.918C779.667 138.857 785.919 136.273 794.145 136.273ZM794.145 195.177C798.971 195.177 802.645 192.701 805.223 187.693C807.8 182.686 809.116 175.471 809.116 165.994C809.116 156.948 807.91 149.949 805.497 144.995C802.919 139.557 799.135 136.811 794.145 136.811C789.319 136.811 785.645 139.288 783.122 144.295C780.599 149.303 779.283 156.518 779.283 165.994C779.283 175.094 780.49 182.147 782.902 187.101C785.37 192.485 789.1 195.177 794.145 195.177ZM794.913 147.795L795.68 148.549L794.913 150.595L794.145 148.549L794.913 147.795Z" fill="white"/>
<path d="M840 195.498H839.892L839.785 195.716H821.592C821.592 195.661 821.539 195.607 821.485 195.607V195.498H822.023C822.669 195.498 823.207 195.334 823.692 195.062C824.176 194.789 824.553 194.244 824.929 193.427C825.306 192.609 825.575 191.519 825.737 190.048C825.898 188.577 826.006 186.724 826.006 184.38V125.195C826.006 122.852 825.898 120.999 825.737 119.527C825.575 118.056 825.306 116.912 824.929 116.094C824.553 115.277 824.176 114.677 823.692 114.405C823.207 114.132 822.669 113.969 822.023 113.969H821.485V113.86H821.592H835.479V184.38C835.479 186.724 835.587 188.577 835.748 189.993C835.909 191.41 836.179 192.555 836.501 193.372C836.824 194.19 837.255 194.789 837.739 195.062C838.224 195.334 838.762 195.498 839.354 195.498H840Z" fill="white"/>
<path d="M64.3155 0.82019V4.54553C63.922 3.58597 62.9663 2.79575 61.3359 2.2313C59.7055 1.66686 56.8383 1.38464 52.7342 1.38464H37.4424V74.0851C37.4424 78.1491 37.7235 80.9713 38.2857 82.6082C38.8479 84.2451 39.635 85.2047 40.5908 85.5998H23.7248C24.6805 85.2047 25.4676 84.2451 25.9736 82.6082C26.4796 80.9713 26.7607 78.1491 26.7607 74.0851V1.38464H11.4689C7.42102 1.38464 4.61003 1.66686 2.97965 2.2313C1.34928 2.79575 0.393539 3.58597 0 4.54553V0.82019H64.3155Z" fill="white"/>
<path d="M122.784 85.374L122.672 85.5998H103.527L103.415 85.374H104.089C104.65 85.374 105.211 85.2047 105.717 84.9224C106.222 84.6402 106.671 84.0758 107.064 83.2291C107.457 82.3824 107.682 81.2535 107.906 79.7295C108.075 78.2055 108.187 76.2864 108.187 73.8593V49.9269C108.187 38.9202 106.447 31.9211 103.022 28.9295C102.629 28.6473 102.124 28.3086 101.45 27.97C100.776 27.6313 99.934 27.4055 98.9796 27.2362C98.0252 27.0669 96.8462 27.0669 95.5549 27.2362C94.2636 27.4055 92.7478 27.7442 91.1196 28.3651C90.1652 28.7602 89.2108 29.2682 88.3125 29.9455C87.4703 30.5664 86.5721 31.3566 85.6176 32.3162C84.6632 33.2758 83.7649 34.5175 82.9228 36.0415C82.8666 36.2109 82.8105 36.4931 82.8105 36.9446V73.8593C82.8105 76.2864 82.9228 78.2055 83.0912 79.6731C83.2596 81.1407 83.5403 82.326 83.8772 83.1727C84.2141 84.0193 84.6632 84.6402 85.1685 84.9224C85.6738 85.2047 86.2913 85.374 86.8528 85.374H87.5265L87.3019 85.5998H68.2695V85.4869L68.2134 85.374H68.7748C69.4485 85.374 70.0099 85.2047 70.5152 84.9224C71.0205 84.6402 71.4135 84.0758 71.8065 83.2291C72.1995 82.3824 72.4802 81.2535 72.6487 79.7295C72.8171 78.2055 72.9294 76.2864 72.9294 73.8593V12.5606C72.9294 10.1335 72.8171 8.21442 72.6487 6.69041C72.4802 5.16641 72.1995 3.98108 71.8065 3.13441C71.4135 2.28775 71.0205 1.66686 70.5152 1.38464C70.0099 1.10241 69.4485 0.933079 68.7748 0.933079H68.2134L68.3257 0.82019H82.8105V33.8966C83.2596 33.2758 83.9895 32.4855 84.9439 31.526C85.8984 30.5664 87.3581 29.494 89.2108 28.3651C90.7266 27.4055 92.3548 26.7846 94.0952 26.5024C95.8356 26.2202 97.4638 26.1638 98.9796 26.2202C100.776 26.2766 102.573 26.5024 104.369 26.8975C106.11 27.2926 107.738 27.9135 109.254 28.7602C110.77 29.6069 112.061 30.7922 113.128 32.2033C116.328 36.4931 117.956 42.4198 117.956 49.9269V73.8593C117.956 76.2864 118.068 78.2055 118.237 79.7295C118.405 81.2535 118.686 82.3824 119.079 83.2291C119.472 84.0758 119.865 84.6402 120.37 84.9224C120.875 85.2047 121.437 85.374 122.11 85.374H122.784ZM96.1163 44.5082L96.9023 45.2984L96.1163 47.4433L95.3303 45.2984L96.1163 44.5082Z" fill="white"/>
<path d="M155.807 84.7096C159.512 84.7096 162.989 83.597 166.125 81.3716C169.26 79.1463 171.825 75.9752 173.706 71.914L174.733 72.4703L174.391 73.0267C172.395 77.0322 169.773 80.1477 166.524 82.3174C163.274 84.4871 159.683 85.5998 155.807 85.5998C147.085 85.5998 140.187 83.5413 135.113 79.3688C130.04 75.1964 127.019 69.188 126.05 61.2324C126.05 60.9543 126.05 60.6761 125.993 60.3979C125.936 60.1198 125.936 59.8416 125.936 59.4522C125.936 59.2853 125.936 59.174 125.879 59.1184C125.822 59.0627 125.822 58.9515 125.822 58.7846C125.822 58.1726 125.822 57.6163 125.765 57.0043C125.708 56.3923 125.708 55.836 125.708 55.224C125.708 45.4882 127.931 38.089 132.377 32.9151C136.824 27.7413 143.208 25.1821 151.531 25.1821C160.424 25.1821 166.98 28.0194 171.312 33.7496C175.189 38.8679 177.184 46.3784 177.355 56.2254H136.767V56.3367V58.7846C137.166 67.2408 138.933 73.6943 142.182 78.0893C145.432 82.5399 149.935 84.7096 155.807 84.7096ZM136.767 55.5578H167.322V55.3353C167.322 46.2115 166.125 39.1461 163.673 34.1947C160.88 28.7983 156.833 26.0723 151.588 26.0723C146.971 26.0723 143.322 28.4645 140.757 33.1933C138.078 38.1447 136.767 45.4882 136.767 55.224V55.5578ZM152.443 35.5299L153.241 36.3088L152.443 38.4228L151.645 36.3088L152.443 35.5299Z" fill="white"/>
<path d="M246.762 0.82019C273.27 0.82019 286.497 14.9124 286.497 43.1534C286.497 57.5852 283.514 68.2251 277.604 75.1863C271.695 82.1475 262.577 85.5998 250.251 85.5998H218.283C219.24 85.2036 220.028 84.1849 220.591 82.5436C221.154 80.9024 221.435 78.016 221.435 73.9412V12.3656C221.435 8.29075 221.154 5.4044 220.591 3.76314C220.028 2.12188 219.24 1.10317 218.283 0.82019H246.762ZM268.824 74.6203C270.907 71.168 272.483 66.8102 273.439 61.66C274.396 56.5098 274.903 50.341 274.903 43.1534C274.903 29.3442 272.595 18.9872 267.924 12.026C263.196 4.95164 256.161 1.38614 246.874 1.38614H232.129V84.9206H250.139C258.525 84.9206 264.772 81.5249 268.824 74.6203ZM250.251 16.3273L251.039 17.1196L250.251 19.2702L249.463 17.1196L250.251 16.3273ZM250.251 21.0813L251.039 21.8736L250.251 24.0242L249.463 21.8736L250.251 21.0813Z" fill="white"/>
<path d="M346.255 26.269C345.65 26.269 345.1 26.4375 344.495 26.7183C343.89 26.9991 343.286 27.5608 342.681 28.4033C342.076 29.2458 341.416 30.3692 340.756 31.8857C340.097 33.4023 339.382 35.312 338.667 37.6149L326.022 75.9213V76.0336L321.843 88.7276L321.183 90.5249L321.074 90.9743C319.974 94.3444 318.874 97.0404 317.775 99.0063C316.675 100.972 315.466 102.601 314.146 103.781C312.881 104.904 311.397 105.746 309.693 106.252C307.988 106.757 305.844 107.038 303.26 107.038H297.982V106.926C296.277 106.701 294.848 105.859 293.583 104.455C292.209 102.882 291.549 101.028 291.714 98.9501C291.879 96.8719 292.704 95.0745 294.243 93.6703C295.838 92.3223 297.652 91.7045 299.686 91.873C301.72 92.0415 303.425 92.884 304.799 94.4567C306.174 96.0294 306.834 97.8829 306.669 99.9611C306.504 102.039 305.624 103.837 304.03 105.241C303.81 105.466 303.425 105.746 302.82 106.027H303.26C305.679 106.027 307.713 105.803 309.363 105.297C311.012 104.792 312.442 104.005 313.706 102.882C314.971 101.702 316.07 100.13 317.115 98.1638C318.16 96.1979 319.149 93.6703 320.194 90.5249L320.634 89.0646L298.971 36.1545C298.092 34.1324 297.267 32.4474 296.552 31.1556C295.838 29.8637 295.123 28.8527 294.518 28.1225C293.913 27.3923 293.308 26.943 292.704 26.6621C292.099 26.3813 291.549 26.269 290.944 26.269H290.395L290.504 26.1566H310.187L310.297 26.269H310.407H309.858C309.033 26.269 308.483 26.5498 308.208 27.0553C307.493 28.1225 307.933 30.8747 309.528 35.3681L325.362 74.4609L338.337 34.2448C339.437 30.4815 339.602 28.1225 338.777 27.0553C338.337 26.5498 337.733 26.269 337.018 26.269H336.468L336.688 26.1566H346.804L346.914 26.269H346.255ZM323.383 40.0862L322.503 37.9519L323.383 37.1655L324.042 37.9519L323.383 40.0862Z" fill="white"/>
<path d="M403.434 85.3771V85.4885L403.321 85.5998H384.19L383.965 85.4885V85.3771H384.642C385.319 85.3771 385.883 85.2102 386.335 84.9319C386.786 84.6536 387.238 84.097 387.633 83.2621C388.028 82.4272 388.254 81.2584 388.479 79.7556C388.649 78.2529 388.761 76.3048 388.761 73.9115V50.0897C388.761 44.4682 388.31 39.9042 387.464 36.5091C386.617 33.1139 385.319 30.6649 383.57 29.1622V29.0509C383.175 28.7726 382.667 28.4386 381.989 28.1047C381.312 27.7707 380.466 27.5481 379.506 27.3811C378.547 27.2141 377.362 27.2141 376.064 27.3811C374.766 27.5481 373.242 27.9377 371.606 28.6056C370.703 28.8839 369.8 29.3848 368.897 30.0527C368.051 30.6649 367.204 31.3885 366.245 32.3347C365.285 33.2809 364.439 34.4497 363.592 35.8412V36.0638V36.6204V74.0228C363.592 76.4161 363.705 78.3085 363.874 79.8113C364.044 81.3141 364.326 82.4829 364.665 83.3178C365.003 84.1527 365.455 84.7649 365.962 85.0432C366.47 85.3215 367.091 85.4885 367.655 85.4885H368.22L368.107 85.5998H348.976H348.863V85.4885H349.428C350.048 85.4885 350.613 85.3215 351.121 85.0432C351.629 84.7649 352.08 84.2083 352.475 83.3734C352.87 82.5386 353.152 81.3697 353.322 79.867C353.491 78.3642 353.604 76.4161 353.604 74.0228V37.7336C353.604 35.3403 353.491 33.4479 353.322 31.9451C353.152 30.4423 352.87 29.3291 352.475 28.4943C352.08 27.6594 351.629 27.1028 351.121 26.8245C350.613 26.5462 350.048 26.3793 349.428 26.3793H348.863V26.2679V26.1566H348.976H363.536V33.7262C363.987 33.1139 364.721 32.3904 365.68 31.4998C366.64 30.6093 367.994 29.6631 369.631 28.6056C371.154 27.6594 372.791 27.0472 374.597 26.7689C376.403 26.4906 378.039 26.4349 379.563 26.4906C381.369 26.5462 383.118 26.7689 384.868 27.1585C386.617 27.5481 388.254 28.1603 389.777 28.9952C391.301 29.8301 392.599 30.9989 393.671 32.5017C396.888 36.5647 398.524 42.4645 398.524 50.0897V73.9115C398.524 76.3048 398.637 78.2529 398.807 79.7556C398.976 81.2584 399.258 82.4272 399.653 83.2621C400.048 84.097 400.443 84.6536 400.951 84.9319C401.459 85.2102 402.023 85.3771 402.7 85.3771H403.434ZM376.515 43.856L377.306 44.6352L376.515 46.6389L375.725 44.6352L376.515 43.856Z" fill="white"/>
<path d="M464.826 83.7938C463.968 84.5167 462.824 85.184 461.279 85.7957C459.963 86.2962 458.304 86.5742 456.245 86.5742C452.583 86.5742 449.894 85.7957 448.235 84.2387C446.805 82.9597 445.775 81.2914 445.26 79.2339C444.803 78.1217 444.574 76.7315 444.574 75.1188V69.558C443.601 74.674 441.427 78.6778 438.166 81.5695C434.905 84.4611 430.958 85.9069 426.381 85.9069C422.948 85.9069 419.916 85.6289 417.342 85.1284C414.767 84.6279 412.593 83.7938 410.934 82.6816C407.902 80.8465 406.357 78.0661 406.357 74.3403C406.357 71.8935 406.815 69.6692 407.788 67.6116C408.76 65.5541 410.076 63.8302 411.85 62.3844C413.623 60.9386 415.683 59.8264 418.143 58.9923C420.603 58.1581 423.292 57.7689 426.267 57.7689C432.674 57.7689 437.308 56.4899 440.226 53.9319C443.143 51.3739 444.574 47.2588 444.574 41.6423C444.574 36.3039 443.43 32.3001 441.141 29.6308C439.082 27.2397 436.107 26.0719 432.216 26.0719C428.784 26.0719 425.523 26.8504 422.491 28.463C419.459 30.0757 416.827 32.2444 414.71 35.0805C416.255 34.2464 417.857 34.0239 419.63 34.3576C421.404 34.6912 422.891 35.5254 424.093 36.86C425.523 38.417 426.209 40.2521 426.038 42.3652C425.866 44.4784 425.008 46.2579 423.406 47.6481C421.747 48.9827 419.859 49.5944 417.742 49.4276C415.625 49.2607 413.852 48.4266 412.422 46.8696C411.449 45.7574 410.82 44.4784 410.591 43.0326C410.362 41.5867 410.534 40.2521 411.049 38.9731C412.822 34.2464 415.568 30.743 419.287 28.5187C423.006 26.2943 427.354 25.1821 432.216 25.1821C447.148 25.1821 454.643 32.1332 454.643 45.9798V61.1054V78.9002C454.643 81.069 454.986 82.5148 455.672 83.2377C456.359 83.9606 457.332 84.3499 458.647 84.3499C459.563 84.3499 460.421 84.1831 461.279 83.905C462.252 83.5158 463.167 83.0709 463.911 82.5704L464.826 83.7938ZM444.574 47.3144L444.116 48.5378C443.201 52.0412 441.37 54.5436 438.681 56.1006C435.992 57.6577 432.159 58.4362 427.182 58.4362C423.978 58.4362 421.404 59.882 419.401 62.7181C417.399 65.5541 416.426 69.3355 416.426 74.0067C416.426 77.6212 417.227 80.4017 418.829 82.2368C420.603 84.2943 423.234 85.3509 426.839 85.3509C431.816 85.3509 435.878 83.627 439.024 80.1236C442.171 76.6203 444.059 71.9491 444.574 65.999V47.3144ZM433.246 36.6375L432.445 38.7507L431.644 36.6375L432.445 35.859L433.246 36.6375Z" fill="white"/>
<path d="M554.478 85.3771V85.4885L554.365 85.5998H535.277L535.051 85.3771H535.729C536.406 85.3771 536.971 85.2102 537.423 84.9319C537.875 84.6536 538.327 84.097 538.665 83.2621C539.061 82.4272 539.287 81.2584 539.512 79.7556C539.682 78.2529 539.795 76.3048 539.795 73.9115V50.0897C539.795 44.4682 539.343 39.9042 538.496 36.4534C537.649 33.0026 536.406 30.5536 534.712 29.0509C533.865 28.383 532.566 27.8264 530.646 27.3811C528.783 26.9358 526.128 27.3254 522.683 28.4943C521.723 28.9395 520.763 29.5518 519.747 30.2753C518.9 30.8876 517.996 31.7225 516.923 32.78C515.85 33.8375 514.947 35.1733 514.1 36.7317C515.681 40.2938 516.471 44.7465 516.471 50.0897V73.9115C516.471 76.3048 516.584 78.2529 516.754 79.7556C516.923 81.2584 517.206 82.4272 517.601 83.2621C517.996 84.097 518.391 84.6536 518.9 84.9319C519.408 85.2102 519.973 85.3771 520.65 85.3771H521.215V85.4885L521.102 85.5998H501.901L501.788 85.3771H502.466C503.087 85.3771 503.595 85.2102 504.16 84.9319C504.668 84.6536 505.12 84.097 505.516 83.2621C505.911 82.4272 506.193 81.2584 506.363 79.7556C506.532 78.2529 506.645 76.3048 506.645 73.9115V50.0897C506.645 44.4682 506.193 39.9042 505.346 36.4534C504.499 33.0026 503.2 30.5536 501.449 29.0509C501.054 28.7726 500.546 28.4386 499.868 28.1047C499.191 27.7707 498.343 27.5481 497.383 27.3811C496.423 27.2141 495.237 27.2141 493.939 27.3811C492.64 27.5481 491.115 27.882 489.477 28.4943C488.574 28.8839 487.67 29.3848 486.766 30.0527C485.919 30.6649 485.016 31.3885 484.056 32.3347C483.096 33.2809 482.192 34.4497 481.345 35.8412V35.9525V36.6204V74.0228C481.345 76.4161 481.458 78.3085 481.627 79.8113C481.797 81.3141 482.079 82.4272 482.474 83.2621C482.87 84.097 483.265 84.6536 483.773 84.9319C484.282 85.2102 484.79 85.3771 485.411 85.3771H486.089V85.4885L485.976 85.5998H466.775V85.4885V85.3771H467.227C467.904 85.3771 468.469 85.2102 468.977 84.9319C469.486 84.6536 469.881 84.097 470.276 83.2621C470.672 82.4272 470.954 81.3141 471.123 79.8113C471.293 78.3085 471.406 76.4161 471.406 74.0228V37.7336C471.406 35.3403 471.293 33.4479 471.123 31.9451C470.954 30.4423 470.672 29.2735 470.276 28.4386C469.881 27.6037 469.486 26.9915 468.977 26.7132C468.469 26.4349 467.904 26.2679 467.227 26.2679H466.775V26.1566H481.345V33.7262C481.853 33.1139 482.587 32.3904 483.547 31.4998C484.508 30.6093 485.806 29.6631 487.557 28.6056C489.082 27.6594 490.72 26.9915 492.47 26.7132C494.221 26.4349 495.859 26.3236 497.383 26.3793C499.191 26.4349 500.998 26.6575 502.805 27.0472C504.556 27.4924 506.137 28.1603 507.662 28.9952C509.186 29.8301 510.485 30.9989 511.615 32.3904C512.349 33.3365 513.027 34.4497 513.648 35.6185L513.535 35.5072V35.3959C513.817 34.7837 514.269 34.1158 514.89 33.3922C515.398 32.78 516.133 32.1121 517.093 31.2772C518.053 30.4423 519.239 29.5518 520.763 28.6056C522.288 27.6594 523.926 26.9915 525.733 26.7132C527.54 26.4349 529.178 26.3236 530.703 26.3793C532.51 26.4349 534.26 26.6575 536.011 27.0472C537.762 27.4924 539.4 28.1603 540.924 28.9952C542.449 29.8301 543.748 30.9989 544.821 32.3904C548.04 36.4534 549.678 42.3532 549.678 50.0897V73.9115C549.678 76.3048 549.791 78.2529 549.96 79.7556C550.129 81.2584 550.412 82.4272 550.807 83.2621C551.202 84.097 551.598 84.6536 552.106 84.9319C552.614 85.2102 553.179 85.3771 553.857 85.3771H554.478ZM494.334 43.7447L495.125 44.5239L494.334 46.6389L493.543 44.5239L494.334 43.7447ZM528.896 43.7447L529.686 44.5239L528.896 46.6389L528.105 44.5239L528.896 43.7447Z" fill="white"/>
<path d="M576.891 85.3744V85.4871L576.777 85.5998H557.515L557.401 85.4871V85.3744H558.085C558.712 85.3744 559.225 85.2053 559.738 84.9235C560.251 84.6418 560.65 84.0782 561.049 83.233C561.447 82.3877 561.732 81.2606 561.903 79.7391C562.074 78.2176 562.188 76.3016 562.188 73.8785V37.1367C562.188 34.7135 562.074 32.7975 561.903 31.276C561.732 29.7545 561.447 28.5711 561.049 27.7258C560.65 26.8805 560.251 26.2606 559.738 25.9789C559.225 25.6971 558.712 25.528 558.085 25.528H557.401L557.515 25.4153H572.218V73.8785C572.218 76.3016 572.332 78.2176 572.503 79.7391C572.674 81.2606 572.959 82.3877 573.301 83.233C573.643 84.0782 574.099 84.6418 574.611 84.9235C575.124 85.2053 575.694 85.3744 576.321 85.3744H576.891ZM571.99 14.2575C570.394 15.6664 568.514 16.3426 566.405 16.1735C564.297 16.0045 562.53 15.1028 561.163 13.4686C559.738 11.8907 559.054 10.0311 559.225 7.94607C559.396 5.86103 560.308 4.11411 561.96 2.76165C563.556 1.35284 565.437 0.676605 567.545 0.845663C569.654 1.01472 571.42 1.86001 572.788 3.43788C574.213 5.0721 574.896 6.93173 574.725 9.01677C574.554 11.1018 573.643 12.8487 571.99 14.2575Z" fill="white"/>
<path d="M612.211 85.6825C615.839 85.6825 619.244 84.5678 622.315 82.3383C625.385 80.1089 627.897 76.9319 629.739 72.8632L630.743 73.4206L630.409 73.8665C628.455 77.8795 625.887 81.0007 622.705 83.2301C619.524 85.4595 616.007 86.5742 612.211 86.5742C602.666 86.5742 595.409 84.0104 590.329 78.827C585.25 73.6435 582.738 66.2307 582.738 56.4769C582.738 46.7231 585.138 39.2545 589.939 34.0154C594.739 28.7762 601.884 26.1566 611.43 26.1566C613.216 26.1566 615.002 26.3238 616.788 26.6582C618.575 26.9927 620.305 27.6615 622.035 28.609C623.766 29.5565 625.385 30.9499 627.004 32.6777C628.622 34.4055 630.129 36.6907 631.525 39.4217C631.581 39.589 631.637 39.7004 631.692 39.8119C631.748 39.9234 631.804 40.0348 631.86 40.202V40.3135C632.474 41.8184 632.586 43.3232 632.251 44.8839C631.916 46.4445 631.134 47.7821 629.85 48.8968C628.287 50.2345 626.445 50.8476 624.38 50.6804C622.315 50.5132 620.584 49.6771 619.244 48.1165C617.849 46.5559 617.179 44.7166 617.347 42.6544C617.514 40.5922 618.351 38.8644 619.914 37.5267C621.087 36.4677 622.426 35.8547 623.933 35.6874C625.441 35.5202 626.836 35.7432 628.176 36.412C625.664 32.8449 623.04 30.4483 620.361 29.1664C617.681 27.8844 614.946 27.2713 612.211 27.2713C606.182 27.2713 601.549 29.7794 598.368 34.7399C595.186 39.7004 593.567 46.9461 593.567 56.4769C593.567 66.0077 595.186 73.2534 598.368 78.2139C601.549 83.2301 606.182 85.6825 612.211 85.6825ZM608.192 37.1923L608.973 36.412L609.755 37.1923L608.973 39.3103L608.192 37.1923Z" fill="white"/>
</svg>
