<svg width="355" height="482" viewBox="0 0 355 482" fill="none" xmlns="http://www.w3.org/2000/svg">
<path d="M20.4224 163.426C20.4224 109.549 20.4224 55.3734 20.4224 0C120.612 0 220.502 0 321.888 0C321.888 20.3535 322.486 40.4076 321.589 60.1624C321.29 64.6521 316.804 69.7405 312.916 73.033C268.055 111.645 222.596 149.957 177.436 188.569C173.847 191.861 170.258 195.154 162.781 201.439C172.352 201.739 177.735 202.337 183.118 202.337C219.904 203.235 254.896 211.317 288.093 228.078C379.909 274.173 367.646 390.906 308.43 437.599C249.213 484.292 132.874 495.966 67.0778 459.749C24.9085 436.402 -1.70903 391.804 0.0854092 346.009C6.06687 346.009 12.0483 346.009 18.927 346.009C20.1233 374.743 30.2918 399.586 48.5353 421.137C76.9473 454.361 123.005 469.626 158.594 456.755C182.819 448.075 200.764 431.613 210.035 407.668C227.082 363.968 227.68 319.968 208.839 276.568C192.689 240.65 164.576 221.493 124.201 221.493C119.715 211.317 122.705 204.432 130.481 197.848C166.669 167.617 202.857 136.787 238.746 105.958C242.933 102.366 246.821 98.7741 252.802 93.3864C246.522 92.7878 242.933 92.1892 239.344 92.1892C189.1 92.1892 138.556 92.7878 88.312 91.8899C69.1713 91.5905 56.9093 99.3727 50.6288 116.733C46.1427 128.406 42.2547 140.379 39.8622 152.352C37.1705 163.726 32.3853 167.916 20.4224 163.426Z" fill="url(#paint0_linear)"/>
<defs>
<linearGradient id="paint0_linear" x1="177.47" y1="-51.022" x2="177.47" y2="491.712" gradientUnits="userSpaceOnUse">
<stop stop-color="#101922" stop-opacity="0.86"/>
<stop offset="1" stop-color="#101922" stop-opacity="0"/>
</linearGradient>
</defs>
</svg>
