<svg width="364" height="481" viewBox="0 0 364 481" fill="none" xmlns="http://www.w3.org/2000/svg">
<path d="M28.3473 158.269C24.9275 152.614 22.3596 146.488 20.7261 140.087C17.5932 109.57 25.9272 78.9806 44.1105 54.2545C62.2938 29.5283 89.0292 12.4297 119.128 6.27739C173.224 -5.40166 229.58 -0.712474 280.994 19.7458C360.309 51.1947 388.163 130.591 339.131 200.156C313.3 236.992 277.622 268.104 242.214 296.657C203.096 328.106 159.257 353.764 117.711 389.253H194.328C220.159 389.253 246.125 387.839 271.822 389.657C301.565 391.745 318.426 380.162 324.833 350.935C328.862 336.907 333.819 323.162 339.671 309.789L347.899 311.877V480.838H0.964844C10.8792 461.376 15.1956 444.743 25.5821 433.699C71.9838 385.078 122.5 340.295 167.215 289.99C210.582 240.898 235.402 182.849 228.994 114.294C224.004 60.4206 196.621 23.5844 154.806 20.0152C129.3 18.2388 104.02 25.7965 83.6884 41.2759C63.3572 56.7552 49.3667 79.097 44.3316 104.126C40.9594 121.365 39.9477 139.009 37.5872 156.451L28.3473 158.269Z" fill="url(#paint0_linear)"/>
<defs>
<linearGradient id="paint0_linear" x1="182.223" y1="-51" x2="182.223" y2="491.5" gradientUnits="userSpaceOnUse">
<stop stop-color="#101922" stop-opacity="0.86"/>
<stop offset="1" stop-color="#101922" stop-opacity="0"/>
</linearGradient>
</defs>
</svg>
