<svg width="575" height="240" viewBox="0 0 575 240" fill="none" xmlns="http://www.w3.org/2000/svg">
<path d="M63.4581 0C62.5736 0.368479 61.855 1.34495 61.3022 2.92941C60.7494 4.51386 60.473 7.33272 60.473 11.386V50.7395C60.473 61.7939 58.0776 70.1215 53.2868 75.7224C48.4223 81.3269 41.273 84.1274 31.8388 84.1237C22.3309 84.1237 15.2295 81.3601 10.5345 75.8329C5.71789 70.3057 3.31143 62.0518 3.31512 51.0711V11.386C3.31512 7.33272 3.03872 4.51386 2.48594 2.92941C1.93315 1.34495 1.21453 0.368479 0.330078 0H16.8031C15.8412 0.368479 15.1042 1.34495 14.5919 2.92941C14.0797 4.51386 13.8217 7.33272 13.818 11.386V49.1919C13.818 60.3236 15.329 68.7987 18.3509 74.6169C21.3727 80.4352 25.8687 83.3462 31.8388 83.3499C40.9045 83.3499 47.7958 80.5494 52.5129 74.9486C57.23 69.3477 59.5886 61.1675 59.5886 50.4079V11.386C59.5886 7.33272 59.3122 4.51386 58.7594 2.92941C58.2066 1.34495 57.4511 0.368479 56.493 0H63.4581ZM34.4922 16.6921L33.7183 14.5918L34.4922 13.8179L35.2661 14.5918L34.4922 16.6921ZM34.4922 21.2244L33.7183 19.124L34.4922 18.3502L35.2661 19.124L34.4922 21.2244Z" fill="#FEFEFE"/>
<path d="M107.904 55.2717C111.589 58.588 113.432 62.5307 113.432 67.0998C113.469 69.5168 112.919 71.9068 111.829 74.0641C110.73 76.1625 109.182 77.9931 107.296 79.4255C105.177 81.0212 102.777 82.2026 100.22 82.9076C97.2536 83.7468 94.182 84.1562 91.0992 84.1236C87.0142 84.1279 82.9872 83.1572 79.3529 81.2922C75.7187 79.4272 72.5821 76.7218 70.2039 73.4008C69.5941 72.6693 69.1379 71.8225 68.8624 70.9109C68.587 69.9993 68.4981 69.0415 68.6009 68.0947C68.7092 66.6203 69.2558 65.2118 70.1704 64.0501C71.085 62.8884 72.326 62.0266 73.734 61.5751C75.142 61.1236 76.6529 61.1032 78.0726 61.5164C79.4923 61.9296 80.7561 62.7576 81.7019 63.8941C82.3478 64.6304 82.8376 65.4901 83.1416 66.4211C83.4457 67.3521 83.5576 68.3352 83.4708 69.3107C83.4197 70.2876 83.1675 71.2435 82.73 72.1185C82.2924 72.9935 81.679 73.7687 80.928 74.3957C79.9684 75.2449 78.8076 75.8347 77.556 76.1092C76.3645 76.3702 75.1253 76.313 73.9629 75.9433C74.477 76.4629 74.9911 76.9382 75.5107 77.3804C76.0306 77.8287 76.5851 78.2353 77.169 78.5964C81.2302 81.5016 86.1057 83.0492 91.0992 83.0181C94.8581 83.0181 97.8616 81.6548 100.11 78.928C102.358 76.2013 103.482 72.5902 103.482 68.0947C103.482 65.5154 102.21 63.3229 99.6674 61.5174C97.1245 59.7118 93.6052 58.5143 89.1092 57.9247C82.6195 57.1178 77.5707 55.0911 73.9629 51.8448C72.2213 50.3409 70.8329 48.4715 69.8965 46.3697C68.9602 44.2679 68.4989 41.9855 68.5456 39.685C68.5197 37.2994 69.0298 34.9384 70.0381 32.7761C71.0247 30.6848 72.4814 28.8499 74.2945 27.4147C76.2588 25.8792 78.4886 24.7176 80.8727 23.9878C83.6126 23.1501 86.4653 22.74 89.3303 22.7719C91.8999 22.7593 94.4556 23.151 96.9034 23.9326C99.3764 24.7558 101.627 26.1363 103.482 27.9674C103.774 28.1882 104.035 28.4486 104.255 28.7412C104.931 29.462 105.447 30.3166 105.771 31.2498C106.095 32.1829 106.219 33.1737 106.135 34.1579C106.077 35.1492 105.822 36.1192 105.386 37.0112C104.949 37.9032 104.34 38.6994 103.592 39.3534C102.856 40.0003 101.997 40.4908 101.065 40.7948C100.134 41.0989 99.1506 41.2103 98.1748 41.1221C97.1831 41.0654 96.2126 40.8114 95.3203 40.3748C94.4281 39.9382 93.6319 39.3279 92.9787 38.5796C92.33 37.8451 91.8385 36.9856 91.5343 36.0541C91.2301 35.1226 91.1196 34.1387 91.2097 33.163C91.2676 32.1716 91.5223 31.2016 91.9588 30.3096C92.3954 29.4176 93.0052 28.6214 93.7526 27.9674C94.5266 27.2531 95.4528 26.7239 96.4612 26.4198C97.447 26.1284 98.484 26.053 99.5015 26.1987C96.396 24.4659 92.886 23.5885 89.3303 23.6562C87.7307 23.6204 86.147 23.98 84.7198 24.7032C83.2926 25.4263 82.0661 26.4906 81.1491 27.8016C79.0817 30.5652 78.0498 34.2316 78.0535 38.8007C78.0535 41.38 79.2143 43.5541 81.536 45.3228C83.8577 47.0915 87.156 48.2706 91.4309 48.8602C98.5765 49.8956 104.068 52.0328 107.904 55.2717ZM85.1291 34.3789L86.0136 33.6051L86.6769 34.3789L86.0136 36.4793L85.1291 34.3789Z" fill="#FEFEFE"/>
<path d="M144.827 83.018C148.432 83.0192 151.941 81.8561 154.832 79.7017C157.891 77.4909 160.341 74.3588 162.184 70.3055L163.179 70.8582L162.847 71.411C161.165 75.108 158.533 78.293 155.219 80.6413C152.176 82.7771 148.545 83.9165 144.827 83.9024C136.351 83.9024 129.662 81.8389 124.761 77.7119C119.859 73.585 116.929 67.5788 115.971 59.6933C115.971 59.4161 115.952 59.1392 115.916 58.8643C115.875 58.5528 115.856 58.2388 115.861 57.9246C115.864 57.8115 115.846 57.6988 115.805 57.593C115.762 57.4882 115.743 57.3747 115.75 57.2614C115.75 56.6755 115.75 56.0841 115.695 55.4927C115.64 54.9013 115.64 54.3154 115.64 53.724C115.64 44.0735 117.79 36.6855 122.091 31.56C126.391 26.4344 132.588 23.8735 140.681 23.8772C149.282 23.8772 155.68 26.7145 159.873 32.3891C163.621 37.4741 165.571 44.9173 165.722 54.7189H126.364V57.2614C126.732 65.6627 128.483 72.0558 131.615 76.4407C134.748 80.8256 139.151 83.018 144.827 83.018ZM126.364 54.0556H155.993V53.8345C155.993 44.7699 154.814 37.7688 152.455 32.8312C149.724 27.4551 145.818 24.7652 140.736 24.7615C136.236 24.7615 132.735 27.1198 130.233 31.8363C127.653 36.7776 126.364 44.0735 126.364 53.724V54.0556ZM141.56 34.1578L142.334 34.9316L141.56 37.0319L140.786 34.9316L141.56 34.1578Z" fill="#FEFEFE"/>
<path d="M207.956 26.5309C209.247 28.0489 209.883 30.0167 209.725 32.0028C209.663 32.9852 209.406 33.9454 208.969 34.8278C208.533 35.7101 207.925 36.4971 207.182 37.1431C206.447 37.79 205.587 38.2804 204.656 38.5845C203.724 38.8886 202.741 38.9999 201.765 38.9118C200.773 38.8551 199.803 38.601 198.911 38.1645C198.018 37.7279 197.222 37.1175 196.569 36.3693C195.611 35.1965 194.999 33.7803 194.8 32.2792C192.983 33.2782 191.356 34.5877 189.991 36.1482C188.524 37.8205 187.347 39.726 186.508 41.7859C186.314 42.2736 186.148 42.7718 186.011 43.2783C185.749 44.1294 185.473 44.9585 185.182 45.7655V71.5221C185.157 73.4421 185.249 75.3617 185.458 77.2704C185.571 78.4641 185.85 79.6361 186.287 80.7525C186.539 81.4484 186.979 82.0608 187.559 82.5212C188.028 82.8492 188.589 83.023 189.162 83.0187H189.825L189.604 83.2398H171.03V83.0187H171.472C172.081 83.0343 172.68 82.8605 173.186 82.5212C173.755 82.0628 174.178 81.4481 174.402 80.7525C174.797 79.6264 175.056 78.4576 175.176 77.2704C175.382 75.3615 175.474 73.442 175.453 71.5221V35.8166C175.474 33.8967 175.382 31.9773 175.176 30.0683C175.055 28.8814 174.795 27.7127 174.402 26.5862C174.183 25.8886 173.735 25.2852 173.131 24.8727C172.626 24.5824 172.054 24.4299 171.472 24.4306H170.92V24.32H185.182V44.9917C185.403 44.1847 185.624 43.4441 185.845 42.7808C185.971 42.3681 186.119 41.9622 186.287 41.5648C187.761 36.7009 189.77 32.7398 192.312 29.6814C194.855 26.623 197.601 24.7991 200.549 24.2095C201.856 23.8422 203.244 23.8808 204.529 24.32C205.84 24.7552 207.019 25.5159 207.956 26.5309ZM194.911 54.4984L195.684 55.1617L194.911 57.262L194.137 55.1617L194.911 54.4984Z" fill="#FEFEFE"/>
<path d="M251.402 55.2717C255.087 58.588 256.929 62.5307 256.929 67.0998C256.97 69.5171 256.419 71.9076 255.326 74.0641C254.231 76.1649 252.683 77.9961 250.794 79.4255C248.676 81.0224 246.275 82.2039 243.718 82.9076C240.751 83.7468 237.68 84.1562 234.597 84.1236C230.512 84.1279 226.485 83.1572 222.851 81.2922C219.216 79.4272 216.08 76.7218 213.702 73.4008C213.093 72.6685 212.638 71.8216 212.362 70.9102C212.087 69.9988 211.997 69.0414 212.099 68.0947C212.251 66.1766 213.143 64.3927 214.586 63.1203C215.324 62.4536 216.189 61.9433 217.13 61.6202C218.07 61.297 219.066 61.1677 220.058 61.24C221.05 61.3123 222.017 61.5847 222.901 62.0409C223.784 62.4971 224.566 63.1275 225.2 63.8941C225.847 64.6297 226.337 65.4893 226.641 66.4205C226.945 67.3517 227.057 68.3351 226.969 69.3107C226.919 70.2879 226.667 71.2442 226.23 72.1194C225.792 72.9946 225.178 73.7696 224.426 74.3957C223.467 75.2459 222.306 75.8359 221.054 76.1092C219.862 76.3699 218.623 76.3127 217.461 75.9433C217.98 76.4629 218.494 76.9382 219.008 77.3804C219.53 77.8261 220.085 78.2326 220.667 78.5964C224.728 81.5016 229.604 83.0492 234.597 83.0181C238.356 83.0181 241.359 81.6548 243.607 78.928C245.855 76.2013 246.979 72.5902 246.979 68.0947C246.979 65.5154 245.708 63.3229 243.165 61.5174C240.622 59.7118 237.103 58.5143 232.607 57.9247C226.121 57.1178 221.072 55.0911 217.461 51.8448C215.72 50.3402 214.332 48.4706 213.396 46.369C212.46 44.2673 211.998 41.9853 212.043 39.685C212.017 37.2994 212.528 34.9384 213.536 32.7761C214.524 30.686 215.981 28.8515 217.792 27.4147C219.757 25.8802 221.987 24.7188 224.37 23.9878C227.11 23.1501 229.963 22.74 232.828 22.7719C235.398 22.7588 237.953 23.1505 240.401 23.9326C242.875 24.7546 245.126 26.1352 246.979 27.9674C247.273 28.1867 247.534 28.4473 247.753 28.7412C248.431 29.4604 248.949 30.3148 249.273 31.2484C249.597 32.182 249.719 33.1735 249.633 34.1579C249.576 35.1495 249.322 36.1199 248.885 37.012C248.449 37.9042 247.838 38.7002 247.09 39.3534C246.355 40.002 245.496 40.4935 244.564 40.7976C243.632 41.1018 242.648 41.2122 241.673 41.1221C240.681 41.0642 239.711 40.8096 238.819 40.3731C237.927 39.9366 237.131 39.3269 236.476 38.5796C235.83 37.8435 235.34 36.9838 235.036 36.0527C234.732 35.1217 234.62 34.1385 234.708 33.163C234.767 32.1718 235.022 31.2023 235.458 30.3104C235.895 29.4186 236.504 28.6222 237.25 27.9674C238.025 27.2542 238.951 26.7251 239.959 26.4198C240.945 26.1285 241.982 26.0531 242.999 26.1987C239.894 24.4647 236.384 23.5872 232.828 23.6562C231.229 23.6214 229.645 23.9814 228.218 24.7045C226.791 25.4276 225.565 26.4913 224.647 27.8016C222.583 30.5652 221.551 34.2316 221.551 38.8007C221.551 41.38 222.712 43.5541 225.034 45.3228C227.355 47.0915 230.654 48.2706 234.929 48.8602C242.082 49.8956 247.573 52.0328 251.402 55.2717ZM228.627 34.3789L229.511 33.6051L230.175 34.3789L229.511 36.4793L228.627 34.3789Z" fill="#FEFEFE"/>
<path d="M354.716 229.6C354.716 232.913 354.946 235.23 355.406 236.549C355.867 237.87 356.493 238.685 357.293 238.988H343.853C344.651 238.681 345.265 237.868 345.695 236.549C346.124 235.23 346.339 232.913 346.339 229.6V171.796L323.417 238.896L323.325 238.988H315.685L292.947 177.411V229.6C292.947 232.913 293.162 235.23 293.591 236.549C294.021 237.868 294.635 238.681 295.433 238.988H289.633C290.428 238.681 291.042 237.868 291.474 236.549C291.907 235.23 292.122 232.913 292.119 229.6V176.813C292.123 176.118 292.062 175.424 291.934 174.742L290.277 170.324L290.185 170.231C290.073 170.179 289.965 170.117 289.863 170.047C289.771 169.988 289.661 169.928 289.541 169.863H298.194L322.773 237.331L323.049 238.16L346.339 169.863H357.293C356.493 170.172 355.867 170.986 355.406 172.302C354.946 173.619 354.716 175.984 354.716 179.344V229.6ZM321.484 185.143L320.84 183.394L321.484 182.749L322.128 183.394L321.484 185.143ZM321.484 188.916L320.84 187.168L321.484 186.523L322.128 187.168L321.484 188.916Z" fill="#FEFEFE"/>
<path d="M407.642 237.516C406.797 238.233 405.831 238.794 404.788 239.173C403.492 239.644 402.117 239.863 400.738 239.817C397.792 239.817 395.644 239.173 394.294 237.884C393.093 236.779 392.258 235.334 391.901 233.742C391.504 232.652 391.316 231.496 391.348 230.336V225.734C390.551 229.968 388.832 233.282 386.193 235.675C383.612 238.046 380.216 239.332 376.712 239.265C374.272 239.293 371.836 239.078 369.439 238.62C367.604 238.291 365.852 237.603 364.284 236.595C361.829 235.061 360.602 232.76 360.602 229.692C360.579 227.774 360.972 225.875 361.753 224.123C362.506 222.456 363.622 220.978 365.021 219.797C366.518 218.553 368.235 217.601 370.084 216.99C372.191 216.294 374.4 215.952 376.62 215.977C381.775 215.977 385.518 214.919 387.85 212.802C390.182 210.685 391.348 207.295 391.348 202.631C391.348 198.213 390.428 194.899 388.587 192.69C386.93 190.73 384.536 189.748 381.406 189.745C378.674 189.739 375.983 190.419 373.582 191.724C371.112 193.059 368.973 194.93 367.322 197.201C368.526 196.531 369.932 196.318 371.28 196.602C372.676 196.868 373.941 197.598 374.871 198.673C375.437 199.28 375.869 200 376.138 200.785C376.408 201.57 376.509 202.403 376.435 203.229C376.399 204.058 376.195 204.87 375.836 205.617C375.477 206.364 374.971 207.031 374.347 207.577C373.723 208.123 372.995 208.537 372.207 208.795C371.419 209.052 370.587 209.147 369.762 209.074C368.773 208.997 367.816 208.688 366.968 208.173C366.121 207.658 365.406 206.951 364.882 206.109C364.358 205.267 364.039 204.314 363.951 203.326C363.863 202.338 364.009 201.343 364.376 200.422C365.791 196.498 368 193.614 371.004 191.77C374.144 189.893 377.749 188.936 381.406 189.009C393.432 189.009 399.446 194.746 399.449 206.221V233.466C399.449 235.248 399.725 236.445 400.278 237.056C400.586 237.374 400.959 237.621 401.373 237.78C401.786 237.939 402.229 238.006 402.671 237.976C403.393 237.98 404.11 237.855 404.788 237.608C405.538 237.33 406.249 236.958 406.906 236.503L407.642 237.516ZM391.348 207.325L390.98 208.338C390.244 211.222 388.786 213.308 386.608 214.597C384.429 215.885 381.345 216.53 377.356 216.53C374.778 216.53 372.692 217.711 371.096 220.073C369.501 222.436 368.703 225.55 368.703 229.416C368.703 232.426 369.347 234.696 370.636 236.227C372.048 237.948 374.195 238.807 377.08 238.804C381.069 238.804 384.337 237.362 386.884 234.478C389.431 231.594 390.919 227.698 391.348 222.789V207.325ZM382.235 198.489L381.591 200.238L380.946 198.489L381.591 197.845L382.235 198.489Z" fill="#FEFEFE"/>
<path d="M455.791 238.804V238.897L455.699 238.989H442.351C442.198 238.799 442.06 238.599 441.936 238.39C441.72 238.054 441.416 237.548 441.016 236.872C440.615 236.195 440.095 235.325 439.405 234.248C438.715 233.171 437.9 231.841 436.919 230.244L426.425 213.4L421.178 218.923V229.416C421.16 231.015 421.237 232.613 421.408 234.202C421.497 235.182 421.73 236.144 422.099 237.056C422.308 237.61 422.677 238.09 423.157 238.436C423.588 238.692 424.083 238.819 424.584 238.804H424.952V238.989H409.303L409.211 238.897V238.804H409.763C410.234 238.812 410.697 238.684 411.098 238.436C411.579 238.09 411.947 237.61 412.157 237.056C412.525 236.144 412.758 235.182 412.847 234.202C413.019 232.613 413.095 231.015 413.077 229.416V179.712C413.095 178.114 413.018 176.516 412.847 174.926C412.757 173.946 412.524 172.985 412.157 172.073C411.944 171.52 411.577 171.041 411.098 170.692C410.696 170.447 410.234 170.319 409.763 170.324H409.211L409.303 170.14H421.178V217.819L439.865 198.213C440.728 197.37 441.543 196.479 442.305 195.544C442.782 194.955 443.228 194.34 443.639 193.703C443.942 193.221 444.314 192.787 444.744 192.414C445.357 191.857 446.077 191.431 446.861 191.162C447.645 190.893 448.475 190.787 449.301 190.85C450.119 190.902 450.919 191.116 451.653 191.479C452.388 191.843 453.043 192.348 453.581 192.967C454.12 193.579 454.529 194.295 454.782 195.07C455.035 195.846 455.128 196.664 455.054 197.477C455.006 198.302 454.794 199.11 454.431 199.853C454.067 200.595 453.559 201.258 452.937 201.803C452.324 202.342 451.609 202.75 450.833 203.003C450.058 203.256 449.239 203.349 448.426 203.276C447.613 203.234 446.817 203.024 446.088 202.66C445.359 202.295 444.714 201.784 444.192 201.159C443.61 200.54 443.17 199.802 442.903 198.996C442.66 198.238 442.566 197.441 442.627 196.648L440.832 198.443C440.187 199.088 439.497 199.809 438.761 200.606H438.669L432.593 206.957L446.309 229.6H446.401C447.564 231.505 448.577 233.055 449.439 234.248C450.136 235.252 450.922 236.192 451.786 237.056C452.333 237.619 452.971 238.086 453.673 238.436C454.163 238.669 454.696 238.795 455.238 238.804H455.791ZM429.095 198.213L428.45 196.556L429.095 195.912L429.739 196.556L429.095 198.213Z" fill="#FEFEFE"/>
<path d="M481.656 238.805C484.658 238.806 487.58 237.838 489.987 236.043C492.531 234.202 494.571 231.594 496.108 228.219L496.937 228.68L496.661 229.14C495.26 232.218 493.069 234.87 490.309 236.826C487.775 238.604 484.752 239.553 481.656 239.541C474.598 239.541 469.029 237.823 464.948 234.386C460.867 230.95 458.427 225.949 457.629 219.383C457.631 219.152 457.616 218.922 457.583 218.693C457.549 218.434 457.534 218.172 457.537 217.911C457.543 217.816 457.527 217.722 457.491 217.634C457.455 217.547 457.439 217.453 457.445 217.358C457.445 216.87 457.445 216.378 457.399 215.886C457.353 215.393 457.353 214.905 457.353 214.413C457.353 206.377 459.145 200.226 462.729 195.958C466.313 191.69 471.471 189.558 478.204 189.561C485.372 189.561 490.699 191.924 494.184 196.648C497.308 200.882 498.931 207.08 499.054 215.241H466.283V217.358C466.589 224.354 468.047 229.677 470.655 233.328C473.263 236.979 476.93 238.805 481.656 238.805ZM466.283 214.689H490.953V214.505C490.953 206.957 489.971 201.128 488.008 197.017C485.737 192.537 482.484 190.297 478.25 190.297C474.506 190.297 471.591 192.261 469.505 196.188C467.357 200.303 466.283 206.377 466.283 214.413V214.689ZM478.94 198.121L479.585 198.765L478.94 200.514L478.296 198.765L478.94 198.121Z" fill="#FEFEFE"/>
<path d="M534.22 191.769C535.285 193.036 535.814 194.668 535.694 196.318C535.573 197.969 534.814 199.507 533.576 200.606C532.964 201.144 532.248 201.553 531.472 201.806C530.697 202.059 529.878 202.152 529.065 202.078C528.24 202.031 527.432 201.819 526.689 201.455C525.946 201.092 525.283 200.584 524.739 199.961C523.943 198.984 523.433 197.805 523.266 196.556C521.753 197.388 520.398 198.478 519.262 199.777C518.04 201.17 517.06 202.756 516.362 204.471C516.3 204.597 516.162 205.011 515.948 205.714C515.733 206.417 515.503 207.107 515.257 207.785V229.231C515.239 230.83 515.316 232.428 515.487 234.018C515.581 235.011 515.814 235.987 516.178 236.917C516.389 237.495 516.755 238.005 517.236 238.39C517.628 238.663 518.094 238.807 518.571 238.804H519.123L518.939 238.988H503.474V238.804H503.842C504.349 238.817 504.848 238.672 505.269 238.39C505.745 238.009 506.097 237.497 506.282 236.917C506.612 235.98 506.829 235.006 506.926 234.018C507.098 232.428 507.174 230.83 507.156 229.231V199.501C507.174 197.903 507.097 196.304 506.926 194.715C506.828 193.726 506.611 192.753 506.282 191.815C506.099 191.235 505.726 190.732 505.223 190.389C504.803 190.147 504.327 190.02 503.842 190.021H503.382V189.929H515.257V207.141C515.441 206.469 515.625 205.852 515.809 205.3C515.994 204.748 516.118 204.412 516.178 204.287C517.405 200.237 519.077 196.939 521.195 194.393C523.312 191.846 525.598 190.327 528.053 189.837C529.141 189.531 530.297 189.563 531.367 189.929C532.459 190.29 533.441 190.923 534.22 191.769ZM523.358 215.057L524.002 215.609L523.358 217.358L522.714 215.609L523.358 215.057Z" fill="#FEFEFE"/>
<path d="M570.396 215.702C573.465 218.463 574.999 221.746 574.999 225.55C575.031 227.563 574.572 229.553 573.664 231.349C572.752 233.098 571.463 234.622 569.89 235.813C568.127 237.143 566.128 238.127 563.999 238.712C561.529 239.411 558.971 239.752 556.404 239.725C553.003 239.729 549.65 238.92 546.624 237.367C543.598 235.815 540.986 233.562 539.006 230.797C538.498 230.188 538.118 229.483 537.889 228.723C537.659 227.964 537.585 227.167 537.671 226.379C537.807 224.749 538.578 223.237 539.818 222.17C541.057 221.103 542.667 220.565 544.299 220.672C545.949 220.811 547.478 221.593 548.555 222.851C549.631 224.109 550.169 225.74 550.052 227.391C550.01 228.205 549.8 229 549.435 229.729C549.071 230.458 548.56 231.103 547.935 231.625C547.136 232.332 546.17 232.823 545.127 233.052C544.135 233.269 543.103 233.222 542.136 232.914C542.564 233.346 542.996 233.742 543.424 234.11C543.857 234.484 544.319 234.822 544.805 235.123C548.187 237.542 552.246 238.83 556.404 238.805C559.534 238.805 562.035 237.669 563.907 235.399C565.778 233.128 566.714 230.122 566.714 226.379C566.714 224.231 565.656 222.405 563.538 220.902C561.421 219.399 558.491 218.401 554.747 217.911C549.347 217.239 545.143 215.551 542.136 212.848C540.686 211.595 539.531 210.039 538.751 208.289C537.971 206.539 537.587 204.639 537.625 202.723C537.603 200.737 538.028 198.771 538.868 196.971C539.691 195.23 540.903 193.703 542.412 192.506C544.047 191.228 545.904 190.261 547.889 189.653C550.17 188.956 552.546 188.614 554.931 188.641C557.071 188.63 559.199 188.956 561.237 189.607C563.296 190.293 565.17 191.442 566.714 192.967C566.958 193.15 567.175 193.367 567.359 193.611C567.922 194.21 568.353 194.922 568.622 195.699C568.892 196.476 568.995 197.302 568.924 198.121C568.875 198.947 568.663 199.754 568.3 200.497C567.936 201.24 567.429 201.903 566.806 202.447C566.194 202.986 565.478 203.394 564.702 203.647C563.927 203.901 563.108 203.993 562.296 203.92C561.47 203.872 560.662 203.66 559.919 203.297C559.176 202.933 558.513 202.426 557.969 201.803C557.429 201.191 557.02 200.476 556.766 199.7C556.513 198.924 556.421 198.105 556.496 197.293C556.545 196.467 556.758 195.66 557.121 194.918C557.485 194.175 557.992 193.512 558.613 192.967C559.259 192.373 560.03 191.932 560.869 191.678C561.69 191.435 562.553 191.373 563.4 191.494C560.815 190.051 557.892 189.32 554.931 189.377C553.599 189.348 552.281 189.647 551.093 190.249C549.904 190.851 548.883 191.737 548.119 192.829C546.404 195.13 545.545 198.182 545.542 201.987C545.542 204.135 546.508 205.945 548.441 207.418C550.374 208.89 553.121 209.872 556.68 210.363C562.633 211.225 567.205 213.005 570.396 215.702ZM551.433 198.305L552.17 197.661L552.722 198.305L552.17 200.054L551.433 198.305Z" fill="#FEFEFE"/>
<path d="M291.203 139.851C290.657 140.319 289.929 140.75 288.946 141.146C288.109 141.47 287.054 141.65 285.743 141.65C283.413 141.65 281.702 141.146 280.647 140.139C279.737 139.312 279.081 138.232 278.754 136.902C278.463 136.182 278.317 135.283 278.317 134.24V130.643C277.698 133.952 276.315 136.542 274.24 138.412C272.165 140.283 269.653 141.218 266.741 141.218C264.557 141.218 262.627 141.038 260.989 140.714C259.351 140.391 257.968 139.851 256.912 139.132C254.983 137.945 254 136.146 254 133.736C254 132.153 254.291 130.714 254.91 129.384C255.529 128.053 256.366 126.938 257.495 126.002C258.623 125.067 259.934 124.348 261.499 123.808C263.064 123.268 264.775 123.017 266.668 123.017C270.745 123.017 273.694 122.189 275.55 120.535C277.407 118.88 278.317 116.218 278.317 112.585C278.317 109.132 277.589 106.542 276.133 104.815C274.822 103.268 272.929 102.513 270.454 102.513C268.27 102.513 266.195 103.017 264.266 104.06C262.336 105.103 260.662 106.506 259.315 108.34C260.298 107.801 261.317 107.657 262.445 107.873C263.574 108.089 264.52 108.628 265.285 109.491C266.195 110.499 266.632 111.686 266.522 113.053C266.413 114.42 265.867 115.571 264.848 116.47C263.792 117.333 262.591 117.729 261.244 117.621C259.897 117.513 258.769 116.973 257.859 115.966C257.24 115.247 256.839 114.42 256.694 113.484C256.548 112.549 256.657 111.686 256.985 110.858C258.113 107.801 259.861 105.535 262.227 104.096C264.593 102.657 267.36 101.938 270.454 101.938C279.955 101.938 284.724 106.434 284.724 115.391V125.175V136.686C284.724 138.089 284.942 139.024 285.379 139.491C285.816 139.959 286.435 140.211 287.272 140.211C287.854 140.211 288.4 140.103 288.946 139.923C289.565 139.671 290.148 139.384 290.621 139.06L291.203 139.851ZM278.317 116.254L278.026 117.045C277.443 119.312 276.278 120.93 274.567 121.938C272.857 122.945 270.418 123.448 267.251 123.448C265.212 123.448 263.574 124.384 262.3 126.218C261.026 128.053 260.407 130.499 260.407 133.52C260.407 135.858 260.916 137.657 261.936 138.844C263.064 140.175 264.739 140.858 267.032 140.858C270.199 140.858 272.784 139.743 274.786 137.477C276.788 135.211 277.989 132.189 278.317 128.34V116.254ZM271.109 109.348L270.6 110.714L270.09 109.348L270.6 108.844L271.109 109.348Z" fill="#FEFEFE"/>
<path d="M318.36 122.801C320.799 124.959 322 127.513 322 130.499C322 132.189 321.636 133.7 320.945 135.031C320.253 136.362 319.234 137.549 317.96 138.52C316.686 139.492 315.12 140.247 313.3 140.787C311.48 141.326 309.478 141.578 307.294 141.578C304.527 141.578 301.942 140.966 299.504 139.707C297.065 138.448 295.099 136.758 293.533 134.6C292.696 133.592 292.369 132.441 292.478 131.146C292.587 129.851 293.133 128.772 294.116 127.909C295.172 127.01 296.373 126.578 297.72 126.686C299.067 126.794 300.195 127.369 301.105 128.412C301.979 129.42 302.379 130.607 302.27 131.938C302.161 133.269 301.615 134.384 300.596 135.247C299.904 135.823 299.176 136.182 298.375 136.362C297.574 136.542 296.773 136.506 296.009 136.254C296.336 136.578 296.701 136.902 297.028 137.189C297.356 137.477 297.72 137.729 298.12 137.981C300.887 139.887 303.945 140.859 307.294 140.859C309.769 140.859 311.735 139.959 313.227 138.197C314.72 136.434 315.448 134.06 315.448 131.146C315.448 129.456 314.611 128.053 312.936 126.866C311.262 125.679 308.932 124.923 305.983 124.528C301.724 123.988 298.375 122.693 296.009 120.571C293.643 118.448 292.441 115.823 292.441 112.657C292.441 111.038 292.769 109.528 293.424 108.161C294.08 106.794 295.026 105.643 296.227 104.671C297.429 103.7 298.885 102.981 300.559 102.441C302.234 101.902 304.09 101.65 306.129 101.65C307.876 101.65 309.551 101.902 311.116 102.405C312.681 102.909 314.137 103.772 315.448 105.031C315.63 105.175 315.812 105.355 315.957 105.535C316.868 106.542 317.304 107.729 317.195 109.06C317.086 110.391 316.54 111.542 315.521 112.441C314.501 113.305 313.3 113.7 311.953 113.592C310.606 113.484 309.441 112.945 308.531 111.938C307.658 110.93 307.257 109.743 307.366 108.412C307.476 107.082 308.022 105.93 309.041 105.031C309.587 104.564 310.169 104.204 310.825 104.024C311.48 103.844 312.135 103.772 312.827 103.88C310.898 102.765 308.641 102.225 306.129 102.225C303.908 102.225 302.088 103.125 300.741 104.923C299.394 106.722 298.703 109.096 298.703 112.082C298.703 113.772 299.467 115.175 300.996 116.326C302.525 117.477 304.709 118.233 307.512 118.628C312.208 119.312 315.848 120.679 318.36 122.801ZM303.362 109.204L303.945 108.7L304.381 109.204L303.945 110.571L303.362 109.204Z" fill="#FEFEFE"/>
</svg>
