<svg width="348" height="107" viewBox="0 0 348 107" fill="none" xmlns="http://www.w3.org/2000/svg">
<path d="M15.9411 79.6036C16.1101 81.1163 16.3917 82.2928 16.786 83.1332C17.1803 83.9736 17.5746 84.5338 18.0816 84.814C18.5885 85.0941 19.1518 85.2622 19.8278 85.2622H20.2784H0H0.450631C1.12658 85.2622 1.7462 85.0941 2.25316 84.814C2.76012 84.5338 3.21075 83.9736 3.60505 83.1332C3.99935 82.2928 4.281 81.1163 4.44998 79.6036C4.61897 78.0909 4.73163 76.13 4.73163 73.7209V12.5412C4.73163 10.1321 4.61897 8.22727 4.44998 6.71459C4.281 5.25793 3.99935 4.0814 3.60505 3.18499C3.21075 2.34461 2.76012 1.78436 2.25316 1.4482C1.7462 1.16808 1.12658 1 0.450631 1H0H20.2784H19.8278C19.1518 1 18.5885 1.16808 18.0816 1.4482C17.5746 1.72833 17.1803 2.34461 16.786 3.18499C16.3917 4.02537 16.1101 5.2019 15.9411 6.71459C15.7721 8.22727 15.6594 10.1321 15.6594 12.5412V73.7209C15.6594 76.13 15.7721 78.0909 15.9411 79.6036Z" fill="white"/>
<path d="M77.7339 85.038V85.1501L77.6213 85.2621H58.5258L58.3004 85.1501V85.038H58.9764C59.6523 85.038 60.2156 84.8699 60.6663 84.5898C61.1169 84.3097 61.5675 83.7494 61.9618 82.909C62.3561 82.0687 62.5814 80.8921 62.8068 79.3794C62.9757 77.8667 63.0884 75.9059 63.0884 73.4968V49.5179C63.0884 43.8594 62.6378 39.2653 61.7928 35.8477C60.9479 32.4302 59.6523 29.9651 57.9061 28.4524V28.3403C57.5118 28.0602 57.0049 27.724 56.3289 27.3879C55.653 27.0517 54.8081 26.8276 53.8505 26.6596C52.8929 26.4915 51.71 26.4915 50.4144 26.6596C49.1188 26.8276 47.5979 27.2198 45.9644 27.8921C45.0631 28.1722 44.1619 28.6765 43.2606 29.3488C42.4157 29.9651 41.5708 30.6934 40.6132 31.6458C39.6556 32.5983 38.8106 33.7748 37.9657 35.1754V35.3995V35.9598V73.6088C37.9657 76.0179 38.0784 77.9228 38.2474 79.4355C38.4163 80.9481 38.698 82.1247 39.036 82.9651C39.3739 83.8054 39.8246 84.4217 40.3315 84.7018C40.8385 84.982 41.4581 85.1501 42.0214 85.1501H42.5847L42.472 85.2621H23.4328H23.3202V85.1501H23.8835C24.5031 85.1501 25.0664 84.982 25.5733 84.7018C26.0803 84.4217 26.5309 83.8615 26.9252 83.0211C27.3195 82.1807 27.6012 81.0042 27.7702 79.4915C27.9392 77.9788 28.0518 76.0179 28.0518 73.6088V37.0803C28.0518 34.6712 27.9392 32.7663 27.7702 31.2536C27.6012 29.741 27.3195 28.6204 26.9252 27.7801C26.5309 26.9397 26.0803 26.3794 25.5733 26.0993C25.0664 25.8192 24.5031 25.6511 23.8835 25.6511H23.3202V25.5391V25.427H23.4328H37.9657V33.0465C38.4163 32.4302 39.1486 31.7018 40.1062 30.8054C41.0638 29.909 42.4157 28.9566 44.0492 27.8921C45.5701 26.9397 47.2036 26.3234 49.0062 26.0433C50.8087 25.7632 52.4422 25.7071 53.9631 25.7632C55.7656 25.8192 57.5118 26.0433 59.258 26.4355C61.0042 26.8276 62.6378 27.4439 64.1586 28.2843C65.6795 29.1247 66.9751 30.3012 68.0453 31.8139C71.2561 35.9037 72.8896 41.8424 72.8896 49.5179V73.4968C72.8896 75.9059 73.0023 77.8667 73.1713 79.3794C73.3403 80.8921 73.6219 82.0687 74.0162 82.909C74.4105 83.7494 74.8048 84.3097 75.3118 84.5898C75.8187 84.8699 76.382 85.038 77.058 85.038H77.7339ZM50.865 43.2431L51.6536 44.0274L50.865 46.0443L50.0764 44.0274L50.865 43.2431Z" fill="white"/>
<path d="M138.119 85.038V85.15L138.006 85.2621H121.67C121.614 85.206 121.445 84.9259 121.164 84.5338C120.882 84.1416 120.544 83.5253 120.037 82.6849C119.53 81.8445 118.91 80.7801 118.065 79.4915C117.22 78.2029 116.207 76.5781 115.024 74.6173L102.181 54.112L95.7592 60.835V73.6088C95.7592 76.0179 95.8718 77.9228 96.0408 79.4354C96.2098 80.9481 96.4914 82.0686 96.8857 82.909C97.28 83.7494 97.6744 84.3096 98.1813 84.5898C98.6883 84.8699 99.2516 85.038 99.9275 85.038H100.378V85.15V85.2621H81.2263L81.1136 85.15V85.038H81.7896C82.4092 85.038 82.9162 84.8699 83.4231 84.5898C83.9301 84.3096 84.3244 83.7494 84.7187 82.909C85.113 82.0686 85.3946 80.9481 85.5636 79.4354C85.7326 77.9228 85.8453 76.0179 85.8453 73.6088V13.1014C85.8453 10.6923 85.7326 8.78744 85.5636 7.27476C85.3946 5.76207 85.113 4.64157 84.7187 3.80119C84.3244 2.96081 83.9301 2.40055 83.4231 2.12042C82.9162 1.8403 82.4092 1.67222 81.7896 1.67222H81.1136L81.2263 1.44812H95.7592V59.4904L118.629 35.6236C119.924 34.335 120.882 33.2705 121.614 32.3741C122.346 31.4777 122.853 30.7494 123.248 30.1331C123.642 29.5168 124.093 29.0126 124.6 28.5644C126.233 27.1638 128.092 26.4915 130.176 26.6595C132.26 26.8276 134.006 27.668 135.415 29.2367C136.767 30.8054 137.386 32.6543 137.217 34.7272C137.048 36.8001 136.203 38.5929 134.626 39.9936C133.049 41.3382 131.19 41.9545 129.106 41.7864C127.022 41.6183 125.276 40.7779 123.924 39.2092C123.191 38.3688 122.628 37.5285 122.346 36.576C122.065 35.6236 121.952 34.6712 122.008 33.7187C121.332 34.391 120.6 35.1194 119.812 35.9037C119.023 36.6881 118.178 37.5845 117.277 38.5369H117.164L109.729 46.2684L126.515 73.8329H126.627C128.036 76.1299 129.275 78.0348 130.345 79.4915C131.415 80.9481 132.373 82.0686 133.218 82.909C134.063 83.7494 134.851 84.3096 135.527 84.5898C136.203 84.8699 136.823 85.038 137.443 85.038H138.119ZM105.448 35.6236L104.659 33.6067L105.448 32.8223L106.236 33.6067L105.448 35.6236Z" fill="white"/>
<path d="M159.411 85.0379H159.298L159.186 85.262H140.146C140.146 85.206 140.09 85.15 140.034 85.15V85.0379H140.597C141.273 85.0379 141.836 84.8699 142.343 84.5897C142.85 84.3096 143.244 83.7494 143.639 82.909C144.033 82.0686 144.315 80.9481 144.484 79.4354C144.653 77.9227 144.765 76.0179 144.765 73.6088V12.7652C144.765 10.3561 144.653 8.45126 144.484 6.93858C144.315 5.42589 144.033 4.24936 143.639 3.40898C143.244 2.5686 142.85 1.95232 142.343 1.67219C141.836 1.39207 141.273 1.22399 140.597 1.22399H140.034V1.11194H140.146H154.679V73.6088C154.679 76.0179 154.792 77.9227 154.961 79.3794C155.13 80.836 155.411 82.0126 155.749 82.853C156.087 83.6933 156.538 84.3096 157.045 84.5897C157.552 84.8699 158.115 85.0379 158.735 85.0379H159.411Z" fill="white"/>
<path d="M183.069 85.038V85.15L182.956 85.2621H163.917L163.804 85.15V85.038H164.48C165.1 85.038 165.607 84.8699 166.114 84.5898C166.621 84.3097 167.015 83.7494 167.41 82.909C167.804 82.0686 168.085 80.9481 168.254 79.4355C168.423 77.9228 168.536 76.0179 168.536 73.6088V37.0803C168.536 34.6712 168.423 32.7663 168.254 31.2536C168.085 29.7409 167.804 28.5644 167.41 27.724C167.015 26.8837 166.621 26.2674 166.114 25.9872C165.607 25.7071 165.1 25.539 164.48 25.539H163.804L163.917 25.427H178.45V73.6088C178.45 76.0179 178.563 77.9228 178.732 79.4355C178.901 80.9481 179.182 82.0686 179.52 82.909C179.858 83.7494 180.309 84.3097 180.816 84.5898C181.323 84.8699 181.886 85.038 182.506 85.038H183.069ZM178.225 14.334C176.647 15.7346 174.789 16.4069 172.704 16.2388C170.62 16.0708 168.874 15.1744 167.522 13.5496C166.114 11.9809 165.438 10.1321 165.607 8.05913C165.776 5.98619 166.677 4.24941 168.311 2.9048C169.888 1.50416 171.747 0.831858 173.831 0.999934C175.915 1.16801 177.661 2.00839 179.013 3.5771C180.421 5.20184 181.097 7.05067 180.928 9.12361C180.759 11.1966 179.858 12.9333 178.225 14.334Z" fill="white"/>
<path d="M239.848 85.038V85.1501L239.736 85.2621H220.64L220.415 85.1501V85.038H221.091C221.767 85.038 222.33 84.8699 222.781 84.5898C223.231 84.3097 223.682 83.7494 224.076 82.909C224.471 82.0687 224.696 80.8921 224.921 79.3794C225.09 77.8667 225.203 75.9059 225.203 73.4968V49.5179C225.203 43.8594 224.752 39.2653 223.907 35.8477C223.062 32.4302 221.767 29.9651 220.021 28.4524V28.3403C219.626 28.0602 219.119 27.724 218.443 27.3879C217.768 27.0517 216.923 26.8276 215.965 26.6596C215.007 26.4915 213.825 26.4915 212.529 26.6596C211.233 26.8276 209.713 27.2198 208.079 27.8921C207.178 28.1722 206.276 28.6765 205.375 29.3488C204.53 29.9651 203.685 30.6934 202.728 31.6458C201.77 32.5983 200.925 33.7748 200.08 35.1754V35.3995V35.9598V73.6088C200.08 76.0179 200.193 77.9228 200.362 79.4355C200.531 80.9481 200.813 82.1247 201.151 82.9651C201.488 83.8054 201.939 84.4217 202.446 84.7018C202.953 84.982 203.573 85.1501 204.136 85.1501H204.699L204.587 85.2621H185.491H185.378V85.1501H185.942C186.561 85.1501 187.125 84.982 187.632 84.7018C188.139 84.4217 188.589 83.8615 188.983 83.0211C189.378 82.1807 189.659 81.0042 189.828 79.4915C189.997 77.9788 190.11 76.0179 190.11 73.6088V37.0803C190.11 34.6712 189.997 32.7663 189.828 31.2536C189.659 29.741 189.378 28.6204 188.983 27.7801C188.589 26.9397 188.139 26.3794 187.632 26.0993C187.125 25.8192 186.561 25.6511 185.942 25.6511H185.378V25.5391V25.427H185.491H200.024V33.0465C200.475 32.4302 201.207 31.7018 202.164 30.8054C203.122 29.909 204.474 28.9566 206.107 27.8921C207.628 26.9397 209.262 26.3234 211.064 26.0433C212.867 25.7632 214.5 25.7071 216.021 25.7632C217.824 25.8192 219.57 26.0433 221.316 26.4355C223.062 26.8276 224.696 27.4439 226.217 28.2843C227.738 29.1247 229.033 30.3012 230.104 31.8139C233.314 35.9037 234.948 41.8424 234.948 49.5179V73.4968C234.948 75.9059 235.061 77.8667 235.23 79.3794C235.399 80.8921 235.68 82.0687 236.074 82.909C236.469 83.7494 236.863 84.3097 237.37 84.5898C237.877 84.8699 238.44 85.038 239.116 85.038H239.848ZM212.98 43.2431L213.768 44.0274L212.98 46.0443L212.191 44.0274L212.98 43.2431Z" fill="white"/>
<path d="M298.994 26.3235C299.05 26.3795 299.106 26.4916 299.106 26.5476H298.431C297.135 26.5476 296.177 27.5 295.445 29.4049C294.713 31.3097 294.375 34.6713 294.375 39.4334V81.9006C294.375 83.6374 294.262 85.4302 293.981 87.2791C293.699 89.1279 293.361 90.9207 292.854 92.6015C292.347 94.2823 291.727 95.851 290.939 97.3076C290.15 98.7643 289.249 99.9408 288.291 100.837C283.729 104.927 276.857 107 267.675 107C258.437 107 252.072 105.936 248.636 103.751C247.903 103.302 247.228 102.798 246.721 102.182C245.312 100.613 244.636 98.7643 244.805 96.6913C244.974 94.6184 245.876 92.8256 247.509 91.425C249.086 90.0803 250.945 89.4641 253.029 89.6321C255.114 89.8002 256.86 90.6406 258.212 92.2093C259.62 93.778 260.296 95.6269 260.127 97.6998C259.958 99.7727 259.057 101.566 257.423 102.966C256.972 103.358 256.465 103.695 255.902 103.975C255.339 104.255 254.776 104.479 254.156 104.647C255.79 105.039 257.761 105.319 259.958 105.487C262.155 105.655 264.689 105.767 267.562 105.767C273.251 105.767 277.532 104.255 280.405 101.173C281.081 100.501 281.644 99.6047 282.095 98.4281C282.546 97.2516 282.94 96.019 283.278 94.6184C283.616 93.2178 283.841 91.8171 284.01 90.3605C284.179 88.9038 284.236 87.5032 284.236 86.1586V65.3171C283.165 71.8721 280.912 76.9704 277.42 80.6121C273.927 84.2537 269.703 86.0465 264.746 86.0465C250.382 86.0465 243.228 76.2981 243.228 56.8013C243.228 46.3245 245.2 38.593 249.199 33.4947C252.804 28.8446 257.986 26.5476 264.746 26.5476C269.703 26.5476 273.927 28.4524 277.42 32.2061C280.912 35.9598 283.165 41.2823 284.236 48.0613V26.2114H298.994V26.3235ZM265.422 85.0381C268.182 85.0381 270.773 84.3658 273.082 83.0212C275.392 81.6765 277.42 79.7717 279.053 77.3066C280.687 74.8414 281.982 71.8721 282.884 68.3985C283.785 64.925 284.236 61.0592 284.236 56.8013C284.236 52.4873 283.785 48.5095 282.884 44.8679C281.982 41.2262 280.687 38.1448 279.053 35.6237C277.42 33.1025 275.392 31.0856 273.082 29.685C270.773 28.2844 268.182 27.556 265.422 27.556C261.986 27.556 259.282 29.8531 257.31 34.3911C255.283 39.2653 254.269 46.7167 254.269 56.8013C254.269 66.4937 255.283 73.7209 257.31 78.4271C259.282 82.8531 261.986 85.0381 265.422 85.0381ZM267.224 35.1755L268.013 35.9598L267.224 38.0888L266.436 35.9598L267.224 35.1755Z" fill="white"/>
<path d="M342.367 56.9133C346.141 60.2748 348 64.2526 348 68.9027C348 71.5359 347.437 73.8889 346.366 75.9619C345.296 78.0348 343.719 79.8837 341.747 81.3963C339.776 82.909 337.354 84.0856 334.537 84.9259C331.721 85.7663 328.623 86.1585 325.243 86.1585C320.962 86.1585 316.963 85.2061 313.189 83.2452C309.415 81.2843 306.373 78.6511 303.951 75.2896C302.655 73.7209 302.148 71.9281 302.317 69.9111C302.486 67.8942 303.331 66.2135 304.852 64.8689C306.486 63.4682 308.344 62.7959 310.429 62.964C312.513 63.1321 314.259 64.0285 315.667 65.6532C317.019 67.2219 317.639 69.0708 317.47 71.1437C317.301 73.2166 316.456 74.9534 314.879 76.298C313.808 77.1944 312.682 77.7547 311.443 78.0348C310.203 78.3149 308.964 78.2589 307.781 77.8667C308.288 78.371 308.851 78.8752 309.358 79.3234C309.865 79.7716 310.429 80.1638 311.048 80.556C315.329 83.5253 320.061 85.038 325.243 85.038C329.073 85.038 332.115 83.6374 334.425 80.8921C336.734 78.1469 337.861 74.4492 337.861 69.9111C337.861 67.278 336.565 65.093 333.974 63.2441C331.383 61.3953 327.778 60.2188 323.215 59.6025C316.625 58.7621 311.443 56.7452 307.781 53.4397C304.12 50.1342 302.261 46.0443 302.261 41.1141C302.261 38.593 302.768 36.2399 303.782 34.1109C304.796 31.982 306.26 30.1892 308.119 28.6765C309.978 27.1638 312.231 26.0433 314.822 25.2029C317.413 24.3625 320.286 23.9703 323.441 23.9703C326.144 23.9703 328.735 24.3625 331.158 25.1469C333.58 25.9312 335.833 27.2758 337.861 29.2367C338.142 29.4608 338.424 29.741 338.649 30.0211C340.058 31.5898 340.734 33.4386 340.565 35.5116C340.396 37.5845 339.551 39.3773 337.973 40.7779C336.396 42.1226 334.537 42.7388 332.453 42.5708C330.369 42.4027 328.566 41.5623 327.158 39.9936C325.806 38.4249 325.187 36.576 325.356 34.5031C325.525 32.4302 326.37 30.6374 327.947 29.2367C328.792 28.5084 329.693 27.9481 330.707 27.668C331.721 27.3879 332.735 27.2758 333.805 27.4439C330.82 25.7071 327.327 24.8667 323.441 24.8667C320.005 24.8667 317.188 26.2674 315.104 29.0686C313.02 31.8699 311.949 35.5676 311.949 40.2177C311.949 42.8509 313.132 45.0359 315.498 46.8287C317.864 48.6215 321.244 49.798 325.581 50.4143C332.847 51.4788 338.48 53.6638 342.367 56.9133ZM319.16 35.7357L320.061 34.9513L320.737 35.7357L320.061 37.8646L319.16 35.7357Z" fill="white"/>
</svg>
