<svg width="286" height="481" viewBox="0 0 286 481" fill="none" xmlns="http://www.w3.org/2000/svg">
<path d="M223.706 458.346C245.486 458.346 265.087 458.346 285.311 458.346C285.311 466.725 285.311 473.242 285.311 481C197.882 481 110.142 481 21.4683 481C21.4683 474.173 21.4683 467.035 21.4683 458.346C34.8472 458.346 47.6037 458.657 60.3603 458.346C80.5841 457.415 92.7184 446.244 92.7184 426.383C93.0295 311.254 92.7184 195.814 92.7184 80.6839C92.7184 79.1323 92.0961 77.5806 91.7849 75.7187C63.7828 84.4077 36.0917 93.0968 7.15611 102.096C4.3559 94.3381 2.48908 89.0626 0 83.1664C46.6703 66.0987 84.3177 37.2387 119.476 4.65484C121.965 2.48258 125.699 0.620645 128.81 0.310323C160.235 0 191.348 0 223.706 0C223.706 152.989 223.706 304.116 223.706 458.346Z" fill="url(#paint0_linear)"/>
<defs>
<linearGradient id="paint0_linear" x1="142.656" y1="-17" x2="142.656" y2="491.665" gradientUnits="userSpaceOnUse">
<stop stop-color="#101922" stop-opacity="0.86"/>
<stop offset="1" stop-color="#101922" stop-opacity="0"/>
</linearGradient>
</defs>
</svg>
