<svg width="583" height="255" viewBox="0 0 583 255" fill="none" xmlns="http://www.w3.org/2000/svg">
<path d="M64.8172 70.5315C64.8172 74.5044 65.0893 77.2799 65.6335 78.8582C66.1777 80.4364 66.9397 81.3616 67.8648 81.7426H51.5381C52.4633 81.3616 53.2252 80.4364 53.715 78.8582C54.2048 77.2799 54.4769 74.5044 54.4769 70.5315V39.0753H13.2247V70.5315C13.2247 74.45 13.4968 77.2255 14.041 78.8037C14.5852 80.382 15.3471 81.3616 16.3267 81.7426H0C0.87076 81.3616 1.57825 80.382 2.12248 78.8037C2.6667 77.2255 2.93881 74.45 2.93881 70.5315V11.4287C2.93881 7.5103 2.6667 4.73476 2.12248 3.04766C1.57825 1.36056 0.87076 0.380957 0 0H16.3267C15.3471 0.380957 14.5852 1.36056 14.041 3.04766C13.4968 4.73476 13.2247 7.5103 13.2247 11.4287V38.5311H54.4769V11.4287C54.4769 7.5103 54.2048 4.73476 53.715 3.04766C53.2252 1.36056 52.4633 0.380957 51.5381 0H67.8648C66.9397 0.380957 66.1777 1.36056 65.6335 3.04766C65.0893 4.73476 64.8172 7.5103 64.8172 11.4287V70.5315ZM34.1229 15.1294L33.361 13.0614L34.1229 12.2995L34.8848 13.0614L34.1229 15.1294ZM34.1229 19.5921L33.361 17.524L34.1229 16.7621L34.8848 17.524L34.1229 19.5921ZM34.1229 50.9394L34.8848 51.7014L34.1229 53.7694L33.361 51.7014L34.1229 50.9394Z" fill="white"/>
<path d="M100.3 81.5249C103.838 81.5249 107.158 80.4365 110.151 78.2596C113.144 76.0827 115.593 72.9806 117.389 69.0077L118.369 69.552L118.042 70.0962C116.137 74.0146 113.634 77.0623 110.532 79.1847C107.43 81.3072 104.001 82.3957 100.3 82.3957C91.9739 82.3957 85.3887 80.382 80.5451 76.3003C75.7015 72.2187 72.8171 66.341 71.892 58.5586C71.892 58.2865 71.892 58.0144 71.8375 57.7423C71.7831 57.4702 71.7831 57.1981 71.7831 56.8171C71.7831 56.6538 71.7831 56.545 71.7287 56.4906C71.6743 56.4361 71.6743 56.3273 71.6743 56.164C71.6743 55.5654 71.6743 55.0212 71.6199 54.4225C71.5654 53.8239 71.5654 53.2796 71.5654 52.681C71.5654 43.157 73.6879 35.9189 77.9329 30.8576C82.1778 25.7963 88.2731 23.2928 96.2188 23.2928C104.709 23.2928 110.967 26.0684 115.103 31.6739C118.804 36.6808 120.709 44.0278 120.872 53.6606H82.1234V53.7694V56.164C82.5043 64.4362 84.1914 70.7493 87.2935 75.0486C90.3956 79.348 94.695 81.5249 100.3 81.5249ZM82.1234 53.0075H111.294V52.7898C111.294 43.8645 110.151 36.9529 107.811 32.1093C105.144 26.8303 101.28 24.1636 96.2732 24.1636C91.865 24.1636 88.382 26.5038 85.933 31.1297C83.3751 35.9733 82.1234 43.157 82.1234 52.681V53.0075ZM97.0896 33.4154L97.8515 34.1773L97.0896 36.2454L96.3277 34.1773L97.0896 33.4154Z" fill="white"/>
<path d="M162.451 25.905C163.757 27.4833 164.356 29.2792 164.193 31.2928C164.029 33.3065 163.213 34.9936 161.689 36.3541C160.165 37.6603 158.369 38.2589 156.356 38.0956C154.342 37.9324 152.601 37.116 151.24 35.5922C150.315 34.4493 149.716 33.0888 149.499 31.5649C147.757 32.4901 146.179 33.7963 144.764 35.3745C143.349 36.9528 142.206 38.8031 141.335 40.9256C141.281 41.0889 141.117 41.5787 140.845 42.395C140.573 43.2114 140.301 44.0277 140.029 44.844V70.2049C140.029 72.5451 140.138 74.3954 140.301 75.8648C140.464 77.3342 140.737 78.4771 141.117 79.2935C141.498 80.1098 141.879 80.7084 142.369 81.035C142.859 81.3615 143.349 81.5248 143.947 81.5248H144.601L144.383 81.7425H126.097V81.6336V81.5248H125.988H126.532C127.185 81.5248 127.73 81.3615 128.219 81.035C128.709 80.7084 129.09 80.1098 129.417 79.2935C129.743 78.4771 130.015 77.3342 130.179 75.8648C130.342 74.3954 130.451 72.5451 130.451 70.2049V35.048C130.451 32.7078 130.342 30.8575 130.179 29.388C130.015 27.9186 129.743 26.7758 129.417 25.9594C129.09 25.1431 128.655 24.5444 128.165 24.2723C127.675 24.0002 127.131 23.837 126.532 23.837H125.988V23.7281H140.029V44.0821C140.247 43.2658 140.464 42.5583 140.682 41.9052C140.9 41.2521 141.063 40.8712 141.117 40.7079C142.587 35.9187 144.546 32.0003 147.05 29.0071C149.553 26.0138 152.274 24.2179 155.158 23.6193C156.465 23.2383 157.771 23.2927 159.077 23.7281C160.383 24.1635 161.526 24.871 162.451 25.905ZM149.607 53.4428L150.369 54.0958L149.607 56.1639L148.845 54.0958L149.607 53.4428Z" fill="white"/>
<path d="M195.214 81.5249C198.751 81.5249 202.071 80.4365 205.064 78.2596C208.057 76.0827 210.506 72.9806 212.302 69.0077L213.282 69.552L212.955 70.0962C211.051 74.0146 208.547 77.0623 205.445 79.1847C202.343 81.3072 198.914 82.3957 195.214 82.3957C186.887 82.3957 180.302 80.382 175.458 76.3003C170.615 72.2187 167.73 66.341 166.805 58.5586C166.805 58.2865 166.805 58.0144 166.751 57.7423C166.696 57.4702 166.696 57.1981 166.696 56.8171C166.696 56.6538 166.696 56.545 166.642 56.4906C166.587 56.4361 166.587 56.3273 166.587 56.164C166.587 55.5654 166.587 55.0212 166.533 54.4225C166.479 53.8239 166.479 53.2796 166.479 52.681C166.479 43.157 168.601 35.9189 172.846 30.8576C177.091 25.7963 183.186 23.2928 191.132 23.2928C199.622 23.2928 205.88 26.0684 210.016 31.6739C213.717 36.6808 215.622 44.0278 215.785 53.6606H177.036V53.7694V56.164C177.417 64.4362 179.105 70.7493 182.207 75.0486C185.309 79.348 189.608 81.5249 195.214 81.5249ZM177.036 53.0075H206.207V52.7898C206.207 43.8645 205.064 36.9529 202.724 32.1093C200.057 26.8303 196.193 24.1636 191.186 24.1636C186.778 24.1636 183.295 26.5038 180.846 31.1297C178.288 35.9733 177.036 43.157 177.036 52.681V53.0075ZM192.003 33.4154L192.765 34.1773L192.003 36.2454L191.241 34.1773L192.003 33.4154Z" fill="white"/>
<path d="M268.9 96.7995C271.472 96.7995 273.818 97.2936 275.899 98.2818C277.98 99.27 279.796 100.676 281.309 102.463C282.822 104.249 283.995 106.415 284.789 108.962C285.584 111.509 286 114.321 286 117.4C286 120.478 285.584 123.291 284.789 125.837C283.995 128.384 282.822 130.55 281.309 132.337C279.796 134.123 277.98 135.529 275.899 136.518C273.818 137.506 271.472 138 268.9 138C266.327 138 264.171 136.898 262.468 134.731C260.766 132.603 259.593 129.524 258.988 125.533V137.24H249.151L249.076 137.088C249.038 137.05 249 136.974 249 136.936H249.53C249.946 136.936 250.286 136.822 250.627 136.632C250.967 136.442 251.232 136.062 251.459 135.491C251.686 134.921 251.875 134.161 251.989 133.173C252.102 132.185 252.178 130.893 252.178 129.258V87.9817C252.178 86.4233 252.102 85.1311 251.989 84.1048C251.875 83.0786 251.686 82.2805 251.459 81.7104C251.232 81.1402 250.967 80.7221 250.627 80.5321C250.286 80.3421 249.946 80.228 249.53 80.228H249L249.076 80.152L249.151 80H258.988V109.19C259.593 105.237 260.766 102.159 262.468 99.9921C264.133 97.8637 266.289 96.7995 268.9 96.7995ZM268.219 136.252C269.77 136.252 271.208 135.796 272.494 134.883C273.78 133.971 274.877 132.679 275.785 131.045C276.693 129.41 277.412 127.434 277.904 125.115C278.396 122.797 278.661 120.25 278.661 117.4C278.661 114.473 278.434 111.775 277.942 109.304C277.45 106.834 276.769 104.743 275.899 103.033C275.029 101.322 273.969 99.9541 272.721 99.0039C271.472 98.0537 270.11 97.5596 268.597 97.5596C265.457 97.5596 263.074 99.156 261.409 102.349C260.501 104.021 259.858 106.111 259.517 108.62C259.177 111.128 258.988 114.055 258.988 117.4C258.988 120.592 259.177 123.367 259.517 125.723C259.858 128.08 260.463 130.056 261.333 131.691C262.884 134.731 265.192 136.252 268.219 136.252ZM268.9 103.869L269.429 104.401L268.9 105.845L268.37 104.401L268.9 103.869Z" fill="white"/>
<path d="M308.397 137.381C310.908 137.381 313.265 136.608 315.39 135.061C317.514 133.514 319.253 131.309 320.528 128.486L321.223 128.873L320.991 129.26C319.639 132.044 317.862 134.21 315.66 135.718C313.458 137.227 311.024 138 308.397 138C302.487 138 297.812 136.569 294.374 133.669C290.936 130.768 288.889 126.591 288.232 121.061C288.232 120.867 288.232 120.674 288.193 120.481C288.155 120.287 288.155 120.094 288.155 119.823C288.155 119.707 288.155 119.63 288.116 119.591C288.077 119.552 288.077 119.475 288.077 119.359C288.077 118.934 288.077 118.547 288.039 118.122C288 117.696 288 117.309 288 116.884C288 110.116 289.507 104.972 292.52 101.376C295.533 97.779 299.86 96 305.5 96C311.527 96 315.969 97.9724 318.905 101.956C321.532 105.514 322.884 110.735 323 117.58H295.494V117.657V119.359C295.765 125.238 296.962 129.724 299.164 132.779C301.366 135.834 304.418 137.381 308.397 137.381ZM295.494 117.116H316.201V116.961C316.201 110.619 315.39 105.707 313.728 102.265C311.836 98.5138 309.093 96.6188 305.539 96.6188C302.409 96.6188 299.937 98.2818 298.199 101.569C296.383 105.011 295.494 110.116 295.494 116.884V117.116ZM306.118 103.193L306.659 103.735L306.118 105.204L305.577 103.735L306.118 103.193Z" fill="white"/>
<path d="M274.632 164C297.56 164 309 176.134 309 200.451C309 212.878 306.42 222.039 301.309 228.033C296.197 234.027 288.311 237 277.65 237H250C250.828 236.659 251.509 235.782 251.996 234.368C252.483 232.955 252.726 230.47 252.726 226.961V173.941C252.726 170.433 252.483 167.947 251.996 166.534C251.509 165.121 250.828 164.244 250 164H274.632ZM293.715 227.546C295.516 224.573 296.879 220.821 297.706 216.387C298.534 211.952 298.972 206.64 298.972 200.451C298.972 188.561 296.976 179.643 292.936 173.649C288.847 167.557 282.762 164.487 274.729 164.487H261.975V236.415H277.553C284.806 236.415 290.21 233.443 293.715 227.546ZM277.65 177.352L278.332 178.035L277.65 179.887L276.969 178.035L277.65 177.352ZM277.65 181.446L278.332 182.128L277.65 183.98L276.969 182.128L277.65 181.446Z" fill="white"/>
<path d="M345.428 187.263C346.589 188.669 347.122 190.268 346.977 192.062C346.831 193.856 346.105 195.359 344.75 196.57C343.395 197.734 341.798 198.267 340.007 198.122C338.216 197.976 336.667 197.249 335.457 195.892C334.635 194.874 334.102 193.662 333.909 192.305C332.36 193.129 330.956 194.292 329.698 195.698C328.44 197.104 327.423 198.752 326.649 200.643C326.6 200.788 326.455 201.224 326.213 201.951C325.971 202.679 325.729 203.406 325.487 204.133V226.723C325.487 228.807 325.584 230.456 325.729 231.765C325.874 233.073 326.116 234.091 326.455 234.819C326.794 235.546 327.133 236.079 327.568 236.37C328.004 236.661 328.44 236.806 328.972 236.806H329.553L329.359 237H313.097V236.903V236.806H313H313.484C314.065 236.806 314.549 236.661 314.984 236.37C315.42 236.079 315.759 235.546 316.049 234.819C316.34 234.091 316.582 233.073 316.727 231.765C316.872 230.456 316.969 228.807 316.969 226.723V195.407C316.969 193.323 316.872 191.674 316.727 190.365C316.582 189.057 316.34 188.039 316.049 187.311C315.759 186.584 315.372 186.051 314.936 185.809C314.5 185.566 314.016 185.421 313.484 185.421H313V185.324H325.487V203.454C325.681 202.727 325.874 202.097 326.068 201.515C326.262 200.933 326.407 200.594 326.455 200.449C327.762 196.183 329.504 192.692 331.731 190.026C333.957 187.36 336.377 185.76 338.942 185.227C340.104 184.888 341.265 184.936 342.427 185.324C343.589 185.712 344.605 186.342 345.428 187.263ZM334.005 211.792L334.683 212.374L334.005 214.216L333.328 212.374L334.005 211.792Z" fill="white"/>
<path d="M397 234.6C396.266 235.224 395.288 235.8 393.967 236.328C392.841 236.76 391.423 237 389.661 237C386.53 237 384.231 236.328 382.812 234.984C381.589 233.88 380.708 232.439 380.268 230.663C379.877 229.703 379.681 228.503 379.681 227.111V222.31C378.849 226.726 376.99 230.183 374.202 232.679C371.413 235.176 368.037 236.424 364.123 236.424C361.188 236.424 358.595 236.184 356.393 235.752C354.192 235.32 352.333 234.6 350.914 233.639C348.321 232.055 347 229.655 347 226.438C347 224.326 347.391 222.406 348.223 220.63C349.055 218.853 350.18 217.365 351.697 216.117C353.213 214.869 354.975 213.909 357.078 213.188C359.182 212.468 361.481 212.132 364.025 212.132C369.505 212.132 373.468 211.028 375.963 208.82C378.458 206.611 379.681 203.059 379.681 198.21C379.681 193.601 378.703 190.145 376.746 187.841C374.984 185.776 372.44 184.768 369.114 184.768C366.178 184.768 363.389 185.44 360.796 186.832C358.204 188.225 355.953 190.097 354.143 192.545C355.464 191.825 356.834 191.633 358.35 191.921C359.867 192.209 361.139 192.929 362.166 194.082C363.389 195.426 363.977 197.01 363.83 198.834C363.683 200.659 362.949 202.195 361.579 203.395C360.16 204.547 358.546 205.075 356.736 204.931C354.926 204.787 353.409 204.067 352.186 202.723C351.354 201.763 350.816 200.659 350.62 199.41C350.425 198.162 350.571 197.01 351.012 195.906C352.528 191.825 354.877 188.801 358.057 186.88C361.237 184.96 364.955 184 369.114 184C381.883 184 388.292 190.001 388.292 201.955V215.013V230.375C388.292 232.247 388.585 233.495 389.172 234.12C389.759 234.744 390.591 235.08 391.716 235.08C392.499 235.08 393.233 234.936 393.967 234.696C394.798 234.36 395.581 233.976 396.217 233.543L397 234.6ZM379.681 203.107L379.29 204.163C378.507 207.188 376.941 209.348 374.642 210.692C372.342 212.036 369.065 212.708 364.808 212.708C362.068 212.708 359.867 213.957 358.155 216.405C356.442 218.853 355.611 222.118 355.611 226.15C355.611 229.271 356.295 231.671 357.665 233.255C359.182 235.032 361.432 235.944 364.515 235.944C368.771 235.944 372.245 234.456 374.935 231.431C377.626 228.407 379.241 224.374 379.681 219.237V203.107ZM369.994 193.889L369.309 195.714L368.624 193.889L369.309 193.217L369.994 193.889Z" fill="white"/>
<path d="M443.903 186.096C443.952 186.144 444 186.239 444 186.287H443.419C442.306 186.287 441.484 187.101 440.855 188.727C440.226 190.354 439.935 193.225 439.935 197.293V233.563C439.935 235.046 439.839 236.578 439.597 238.157C439.355 239.736 439.065 241.267 438.629 242.703C438.194 244.138 437.661 245.478 436.984 246.722C436.306 247.966 435.532 248.971 434.71 249.736C430.79 253.23 424.887 255 417 255C409.065 255 403.597 254.091 400.645 252.225C400.016 251.842 399.435 251.411 399 250.885C397.79 249.545 397.21 247.966 397.355 246.196C397.5 244.425 398.274 242.894 399.677 241.698C401.032 240.549 402.629 240.023 404.419 240.166C406.21 240.31 407.71 241.028 408.871 242.368C410.081 243.707 410.661 245.286 410.516 247.057C410.371 248.827 409.597 250.359 408.194 251.555C407.806 251.89 407.371 252.177 406.887 252.416C406.403 252.655 405.919 252.847 405.387 252.99C406.79 253.325 408.484 253.565 410.371 253.708C412.258 253.852 414.435 253.947 416.903 253.947C421.79 253.947 425.468 252.655 427.935 250.024C428.516 249.449 429 248.684 429.387 247.679C429.774 246.674 430.113 245.621 430.403 244.425C430.694 243.229 430.887 242.033 431.032 240.788C431.177 239.544 431.226 238.348 431.226 237.2V219.399C430.306 224.998 428.371 229.352 425.371 232.463C422.371 235.573 418.742 237.104 414.484 237.104C402.145 237.104 396 228.778 396 212.126C396 203.178 397.694 196.575 401.129 192.221C404.226 188.249 408.677 186.287 414.484 186.287C418.742 186.287 422.371 187.914 425.371 191.12C428.371 194.326 430.306 198.872 431.226 204.662V186H443.903V186.096ZM415.065 236.243C417.435 236.243 419.661 235.669 421.645 234.52C423.629 233.372 425.371 231.745 426.774 229.639C428.177 227.534 429.29 224.998 430.065 222.031C430.839 219.064 431.226 215.763 431.226 212.126C431.226 208.442 430.839 205.044 430.065 201.934C429.29 198.824 428.177 196.192 426.774 194.039C425.371 191.886 423.629 190.163 421.645 188.967C419.661 187.77 417.435 187.148 415.065 187.148C412.113 187.148 409.79 189.11 408.097 192.986C406.355 197.149 405.484 203.513 405.484 212.126C405.484 220.404 406.355 226.577 408.097 230.596C409.79 234.377 412.113 236.243 415.065 236.243ZM416.613 193.656L417.29 194.326L416.613 196.144L415.935 194.326L416.613 193.656Z" fill="white"/>
<path d="M468.952 184C476.095 184 481.524 186.256 485.333 190.817C489.143 195.378 491 201.907 491 210.5C491 219.093 489.095 225.622 485.333 230.183C481.524 234.744 476.095 237 468.952 237C461.81 237 456.381 234.744 452.619 230.183C448.857 225.622 447 219.093 447 210.5C447 201.907 448.857 195.378 452.619 190.817C456.381 186.256 461.81 184 468.952 184ZM468.952 236.52C473.143 236.52 476.333 234.312 478.571 229.847C480.81 225.382 481.952 218.949 481.952 210.5C481.952 202.435 480.905 196.194 478.81 191.777C476.571 186.928 473.286 184.48 468.952 184.48C464.762 184.48 461.571 186.688 459.381 191.153C457.19 195.618 456.048 202.051 456.048 210.5C456.048 218.613 457.095 224.902 459.19 229.319C461.333 234.12 464.571 236.52 468.952 236.52ZM469.619 194.274L470.286 194.946L469.619 196.77L468.952 194.946L469.619 194.274Z" fill="white"/>
<path d="M541 236.805V236.903L540.903 237H524.426L524.232 236.903V236.805H524.815C525.398 236.805 525.884 236.659 526.273 236.416C526.662 236.172 527.051 235.685 527.391 234.955C527.731 234.225 527.926 233.202 528.12 231.888C528.266 230.573 528.363 228.869 528.363 226.775V205.936C528.363 201.019 527.974 197.026 527.245 194.056C526.516 191.086 525.398 188.944 523.891 187.629V187.532C523.551 187.288 523.114 186.996 522.531 186.704C521.947 186.412 521.218 186.217 520.392 186.071C519.566 185.925 518.545 185.925 517.427 186.071C516.309 186.217 514.997 186.558 513.587 187.142C512.81 187.386 512.032 187.824 511.254 188.408C510.525 188.944 509.796 189.577 508.97 190.404C508.144 191.232 507.415 192.255 506.686 193.472V193.667V194.154V226.873C506.686 228.966 506.783 230.622 506.929 231.936C507.074 233.251 507.317 234.273 507.609 235.004C507.901 235.734 508.29 236.27 508.727 236.513C509.164 236.757 509.699 236.903 510.185 236.903H510.671L510.574 237H494.097H494V236.903H494.486C495.021 236.903 495.507 236.757 495.944 236.513C496.382 236.27 496.77 235.783 497.111 235.052C497.451 234.322 497.694 233.3 497.84 231.985C497.986 230.67 498.083 228.966 498.083 226.873V195.127C498.083 193.034 497.986 191.378 497.84 190.064C497.694 188.749 497.451 187.775 497.111 187.045C496.77 186.315 496.382 185.828 495.944 185.584C495.507 185.341 495.021 185.195 494.486 185.195H494V185.097V185H494.097H506.637V191.622C507.026 191.086 507.658 190.453 508.484 189.674C509.31 188.895 510.477 188.067 511.886 187.142C513.199 186.315 514.608 185.779 516.163 185.536C517.719 185.292 519.128 185.243 520.441 185.292C521.996 185.341 523.503 185.536 525.009 185.876C526.516 186.217 527.926 186.753 529.238 187.483C530.55 188.213 531.668 189.236 532.592 190.551C535.362 194.105 536.771 199.266 536.771 205.936V226.775C536.771 228.869 536.869 230.573 537.014 231.888C537.16 233.202 537.403 234.225 537.744 234.955C538.084 235.685 538.424 236.172 538.861 236.416C539.299 236.659 539.785 236.805 540.368 236.805H541ZM517.816 200.483L518.496 201.165L517.816 202.918L517.135 201.165L517.816 200.483Z" fill="white"/>
<path d="M578.197 212.076C581.415 214.941 583 218.331 583 222.294C583 224.538 582.52 226.543 581.607 228.31C580.695 230.077 579.35 231.652 577.669 232.941C575.988 234.231 573.922 235.233 571.521 235.95C569.119 236.666 566.478 237 563.596 237C559.946 237 556.536 236.188 553.318 234.517C550.1 232.846 547.506 230.602 545.441 227.737C544.336 226.4 543.904 224.872 544.048 223.153C544.192 221.434 544.913 220.002 546.209 218.856C547.602 217.662 549.187 217.089 550.964 217.232C552.741 217.376 554.23 218.14 555.431 219.524C556.584 220.861 557.112 222.437 556.968 224.204C556.824 225.97 556.103 227.45 554.759 228.596C553.846 229.36 552.885 229.838 551.829 230.077C550.772 230.315 549.716 230.268 548.707 229.933C549.139 230.363 549.619 230.793 550.052 231.175C550.484 231.557 550.964 231.891 551.493 232.225C555.143 234.756 559.177 236.045 563.596 236.045C566.862 236.045 569.456 234.851 571.425 232.512C573.394 230.172 574.355 227.021 574.355 223.153C574.355 220.909 573.25 219.047 571.041 217.471C568.831 215.895 565.757 214.893 561.867 214.368C556.248 213.651 551.829 211.932 548.707 209.115C545.585 206.298 544 202.813 544 198.611C544 196.462 544.432 194.457 545.297 192.642C546.161 190.828 547.41 189.3 548.995 188.011C550.58 186.722 552.501 185.767 554.711 185.05C556.92 184.334 559.369 184 562.059 184C564.365 184 566.574 184.334 568.639 185.003C570.704 185.671 572.626 186.817 574.355 188.488C574.595 188.679 574.835 188.918 575.027 189.157C576.228 190.494 576.804 192.069 576.66 193.836C576.516 195.603 575.796 197.131 574.451 198.324C573.106 199.47 571.521 199.995 569.744 199.852C567.967 199.709 566.43 198.993 565.229 197.656C564.076 196.319 563.548 194.743 563.692 192.977C563.836 191.21 564.557 189.682 565.901 188.488C566.622 187.868 567.39 187.39 568.255 187.151C569.119 186.913 569.984 186.817 570.897 186.96C568.351 185.48 565.373 184.764 562.059 184.764C559.129 184.764 556.728 185.958 554.951 188.345C553.174 190.732 552.261 193.884 552.261 197.847C552.261 200.091 553.27 201.953 555.287 203.481C557.304 205.009 560.186 206.012 563.884 206.537C570.08 207.444 574.883 209.259 578.197 212.076ZM558.409 194.027L559.177 193.359L559.754 194.027L559.177 195.841L558.409 194.027Z" fill="white"/>
</svg>
